<svg xmlns="http://www.w3.org/2000/svg" xmlns:xlink="http://www.w3.org/1999/xlink" width="500" zoomAndPan="magnify" viewBox="0 0 375 374.999991" height="500" preserveAspectRatio="xMidYMid meet" version="1.0"><defs><filter x="0%" y="0%" width="100%" height="100%" id="4aed079d97"><feColorMatrix values="0 0 0 0 1 0 0 0 0 1 0 0 0 0 1 0 0 0 1 0" color-interpolation-filters="sRGB"/></filter><g/><mask id="6fba8cd9e7"><g filter="url(#4aed079d97)"><rect x="-37.5" width="450" fill="#000000" y="-37.499999" height="449.999989" fill-opacity="0.57"/></g></mask><clipPath id="dd08ce1ac2"><path d="M 51 56 L 158 56 L 158 173 L 51 173 Z M 51 56 " clip-rule="nonzero"/></clipPath><clipPath id="48ea0618e0"><path d="M 46.699219 -0.351562 L 219.113281 45.867188 L 171.535156 223.351562 L -0.878906 177.132812 Z M 46.699219 -0.351562 " clip-rule="nonzero"/></clipPath><clipPath id="7c497ee3d2"><path d="M 46.699219 -0.351562 L 219.113281 45.867188 L 171.535156 223.351562 L -0.878906 177.132812 Z M 46.699219 -0.351562 " clip-rule="nonzero"/></clipPath><clipPath id="e358945178"><path d="M 46 84 L 126 84 L 126 186 L 46 186 Z M 46 84 " clip-rule="nonzero"/></clipPath><clipPath id="f5747ccea5"><path d="M 46.699219 -0.351562 L 219.113281 45.867188 L 171.535156 223.351562 L -0.878906 177.132812 Z M 46.699219 -0.351562 " clip-rule="nonzero"/></clipPath><clipPath id="232a6b118b"><path d="M 46.699219 -0.351562 L 219.113281 45.867188 L 171.535156 223.351562 L -0.878906 177.132812 Z M 46.699219 -0.351562 " clip-rule="nonzero"/></clipPath><clipPath id="961acd514c"><path d="M 22 20 L 199 20 L 199 191 L 22 191 Z M 22 20 " clip-rule="nonzero"/></clipPath><clipPath id="38cb7007e7"><path d="M 46.699219 -0.351562 L 219.113281 45.867188 L 171.535156 223.351562 L -0.878906 177.132812 Z M 46.699219 -0.351562 " clip-rule="nonzero"/></clipPath><clipPath id="57f17b7b39"><path d="M 46.699219 -0.351562 L 219.113281 45.867188 L 171.535156 223.351562 L -0.878906 177.132812 Z M 46.699219 -0.351562 " clip-rule="nonzero"/></clipPath><clipPath id="64716d2750"><rect x="0" width="219" y="0" height="224"/></clipPath></defs><g fill="#fffdfc" fill-opacity="1"><g transform="translate(118.375123, 287.150896)"><g><path d="M 0.875 -11.015625 C 0.832031 -11.210938 0.863281 -11.375 0.96875 -11.5 C 1.082031 -11.625 1.234375 -11.6875 1.421875 -11.6875 C 1.535156 -11.6875 1.640625 -11.65625 1.734375 -11.59375 C 1.835938 -11.53125 1.90625 -11.4375 1.9375 -11.3125 C 2.0625 -10.726562 2.191406 -10.148438 2.328125 -9.578125 C 2.460938 -9.015625 2.597656 -8.441406 2.734375 -7.859375 C 2.867188 -7.285156 3.007812 -6.695312 3.15625 -6.09375 C 3.300781 -5.5 3.445312 -4.878906 3.59375 -4.234375 C 3.75 -3.585938 3.90625 -2.910156 4.0625 -2.203125 C 4.257812 -2.878906 4.457031 -3.546875 4.65625 -4.203125 C 4.863281 -4.859375 5.070312 -5.488281 5.28125 -6.09375 C 5.5 -6.707031 5.726562 -7.320312 5.96875 -7.9375 C 6.21875 -8.550781 6.472656 -9.15625 6.734375 -9.75 C 6.992188 -10.351562 7.269531 -10.960938 7.5625 -11.578125 C 7.613281 -11.691406 7.679688 -11.773438 7.765625 -11.828125 C 7.859375 -11.890625 7.960938 -11.921875 8.078125 -11.921875 C 8.296875 -11.921875 8.4375 -11.851562 8.5 -11.71875 C 8.5625 -11.582031 8.617188 -11.347656 8.671875 -11.015625 C 8.816406 -10.160156 8.976562 -9.347656 9.15625 -8.578125 C 9.332031 -7.816406 9.523438 -7.078125 9.734375 -6.359375 C 9.953125 -5.640625 10.171875 -4.925781 10.390625 -4.21875 C 10.617188 -3.507812 10.847656 -2.78125 11.078125 -2.03125 C 11.265625 -2.738281 11.453125 -3.421875 11.640625 -4.078125 C 11.828125 -4.742188 12.015625 -5.382812 12.203125 -6 C 12.398438 -6.625 12.601562 -7.242188 12.8125 -7.859375 C 13.019531 -8.484375 13.234375 -9.109375 13.453125 -9.734375 C 13.679688 -10.367188 13.910156 -11.019531 14.140625 -11.6875 C 14.179688 -11.800781 14.25 -11.890625 14.34375 -11.953125 C 14.4375 -12.015625 14.546875 -12.046875 14.671875 -12.046875 C 14.804688 -12.046875 14.914062 -12.015625 15 -11.953125 C 15.09375 -11.890625 15.15625 -11.8125 15.1875 -11.71875 C 15.226562 -11.625 15.222656 -11.515625 15.171875 -11.390625 C 14.992188 -10.941406 14.796875 -10.410156 14.578125 -9.796875 C 14.359375 -9.191406 14.132812 -8.535156 13.90625 -7.828125 C 13.675781 -7.117188 13.445312 -6.398438 13.21875 -5.671875 C 13 -4.941406 12.785156 -4.238281 12.578125 -3.5625 C 12.367188 -2.882812 12.179688 -2.265625 12.015625 -1.703125 C 11.859375 -1.140625 11.742188 -0.675781 11.671875 -0.3125 C 11.617188 -0.113281 11.539062 0.03125 11.4375 0.125 C 11.332031 0.21875 11.21875 0.265625 11.09375 0.265625 C 10.957031 0.265625 10.835938 0.21875 10.734375 0.125 C 10.640625 0.03125 10.5625 -0.109375 10.5 -0.296875 C 10.375 -0.722656 10.222656 -1.222656 10.046875 -1.796875 C 9.867188 -2.367188 9.675781 -2.984375 9.46875 -3.640625 C 9.269531 -4.296875 9.066406 -4.972656 8.859375 -5.671875 C 8.648438 -6.378906 8.457031 -7.082031 8.28125 -7.78125 C 8.101562 -8.476562 7.953125 -9.144531 7.828125 -9.78125 C 7.515625 -9.050781 7.175781 -8.226562 6.8125 -7.3125 C 6.457031 -6.40625 6.09375 -5.378906 5.71875 -4.234375 C 5.351562 -3.085938 4.976562 -1.796875 4.59375 -0.359375 C 4.539062 -0.171875 4.460938 -0.0351562 4.359375 0.046875 C 4.253906 0.140625 4.132812 0.1875 4 0.1875 C 3.875 0.1875 3.765625 0.140625 3.671875 0.046875 C 3.578125 -0.0351562 3.503906 -0.171875 3.453125 -0.359375 Z M 0.875 -11.015625 "/></g></g></g><g fill="#fffdfc" fill-opacity="1"><g transform="translate(133.972759, 287.150896)"><g><path d="M 1.8125 -11.46875 C 1.820312 -11.632812 1.875 -11.757812 1.96875 -11.84375 C 2.070312 -11.9375 2.207031 -11.984375 2.375 -11.984375 C 2.53125 -11.984375 2.660156 -11.941406 2.765625 -11.859375 C 2.878906 -11.773438 2.925781 -11.644531 2.90625 -11.46875 C 2.769531 -10.25 2.679688 -9.019531 2.640625 -7.78125 C 2.609375 -6.550781 2.582031 -5.316406 2.5625 -4.078125 C 2.550781 -2.847656 2.5 -1.617188 2.40625 -0.390625 C 2.394531 -0.285156 2.363281 -0.195312 2.3125 -0.125 C 2.269531 -0.0507812 2.207031 0.00390625 2.125 0.046875 C 2.050781 0.0859375 1.96875 0.109375 1.875 0.109375 C 1.726562 0.109375 1.59375 0.0664062 1.46875 -0.015625 C 1.34375 -0.109375 1.285156 -0.238281 1.296875 -0.40625 C 1.378906 -1.632812 1.429688 -2.863281 1.453125 -4.09375 C 1.472656 -5.320312 1.503906 -6.550781 1.546875 -7.78125 C 1.585938 -9.007812 1.675781 -10.238281 1.8125 -11.46875 Z M 2.296875 -5.5625 C 2.203125 -5.5625 2.117188 -5.582031 2.046875 -5.625 C 1.972656 -5.664062 1.910156 -5.726562 1.859375 -5.8125 C 1.816406 -5.894531 1.796875 -5.988281 1.796875 -6.09375 C 1.796875 -6.28125 1.847656 -6.40625 1.953125 -6.46875 C 2.066406 -6.539062 2.203125 -6.582031 2.359375 -6.59375 C 2.910156 -6.613281 3.4375 -6.632812 3.9375 -6.65625 C 4.4375 -6.675781 4.953125 -6.691406 5.484375 -6.703125 C 6.015625 -6.710938 6.601562 -6.71875 7.25 -6.71875 C 7.894531 -6.726562 8.628906 -6.734375 9.453125 -6.734375 C 9.597656 -6.734375 9.71875 -6.6875 9.8125 -6.59375 C 9.914062 -6.507812 9.96875 -6.394531 9.96875 -6.25 C 9.96875 -6.09375 9.929688 -5.972656 9.859375 -5.890625 C 9.785156 -5.816406 9.691406 -5.765625 9.578125 -5.734375 C 9.472656 -5.710938 9.351562 -5.703125 9.21875 -5.703125 C 8.78125 -5.722656 8.25 -5.726562 7.625 -5.71875 C 7 -5.71875 6.242188 -5.703125 5.359375 -5.671875 C 4.484375 -5.648438 3.460938 -5.613281 2.296875 -5.5625 Z M 9.40625 -11.3125 C 9.40625 -11.5 9.457031 -11.632812 9.5625 -11.71875 C 9.675781 -11.8125 9.8125 -11.859375 9.96875 -11.859375 C 10.113281 -11.859375 10.242188 -11.816406 10.359375 -11.734375 C 10.472656 -11.648438 10.523438 -11.507812 10.515625 -11.3125 C 10.484375 -10.914062 10.457031 -10.503906 10.4375 -10.078125 C 10.425781 -9.660156 10.410156 -9.253906 10.390625 -8.859375 C 10.335938 -7.441406 10.296875 -6.007812 10.265625 -4.5625 C 10.242188 -3.113281 10.234375 -1.664062 10.234375 -0.21875 C 10.234375 -0.0390625 10.175781 0.0859375 10.0625 0.171875 C 9.957031 0.265625 9.832031 0.3125 9.6875 0.3125 C 9.539062 0.3125 9.410156 0.265625 9.296875 0.171875 C 9.191406 0.0859375 9.140625 -0.0390625 9.140625 -0.21875 C 9.140625 -2.0625 9.160156 -3.910156 9.203125 -5.765625 C 9.253906 -7.628906 9.320312 -9.476562 9.40625 -11.3125 Z M 9.40625 -11.3125 "/></g></g></g><g fill="#fffdfc" fill-opacity="1"><g transform="translate(145.831863, 287.150896)"><g><path d="M 2.28125 0.234375 C 2.175781 0.234375 2.0625 0.222656 1.9375 0.203125 C 1.8125 0.191406 1.707031 0.144531 1.625 0.0625 C 1.539062 -0.0078125 1.5 -0.128906 1.5 -0.296875 C 1.59375 -1.484375 1.675781 -2.6875 1.75 -3.90625 C 1.832031 -5.125 1.90625 -6.332031 1.96875 -7.53125 C 2.03125 -8.726562 2.085938 -9.910156 2.140625 -11.078125 C 2.160156 -11.273438 2.210938 -11.425781 2.296875 -11.53125 C 2.390625 -11.644531 2.546875 -11.707031 2.765625 -11.71875 C 3.296875 -11.757812 3.835938 -11.789062 4.390625 -11.8125 C 4.953125 -11.84375 5.539062 -11.863281 6.15625 -11.875 C 6.78125 -11.894531 7.453125 -11.90625 8.171875 -11.90625 C 8.367188 -11.90625 8.507812 -11.859375 8.59375 -11.765625 C 8.6875 -11.679688 8.734375 -11.566406 8.734375 -11.421875 C 8.734375 -11.265625 8.6875 -11.132812 8.59375 -11.03125 C 8.507812 -10.9375 8.367188 -10.890625 8.171875 -10.890625 C 7.660156 -10.890625 7.179688 -10.882812 6.734375 -10.875 C 6.296875 -10.875 5.878906 -10.863281 5.484375 -10.84375 C 5.085938 -10.832031 4.703125 -10.816406 4.328125 -10.796875 C 3.953125 -10.785156 3.582031 -10.765625 3.21875 -10.734375 C 3.195312 -10.296875 3.171875 -9.832031 3.140625 -9.34375 C 3.117188 -8.863281 3.09375 -8.382812 3.0625 -7.90625 C 3.039062 -7.4375 3.015625 -6.976562 2.984375 -6.53125 C 3.453125 -6.59375 3.953125 -6.640625 4.484375 -6.671875 C 5.023438 -6.703125 5.550781 -6.722656 6.0625 -6.734375 C 6.570312 -6.742188 6.988281 -6.738281 7.3125 -6.71875 C 7.457031 -6.71875 7.578125 -6.671875 7.671875 -6.578125 C 7.765625 -6.492188 7.816406 -6.375 7.828125 -6.21875 C 7.828125 -6.070312 7.773438 -5.945312 7.671875 -5.84375 C 7.578125 -5.75 7.457031 -5.703125 7.3125 -5.703125 C 7.039062 -5.722656 6.660156 -5.726562 6.171875 -5.71875 C 5.691406 -5.71875 5.164062 -5.695312 4.59375 -5.65625 C 4.03125 -5.625 3.476562 -5.570312 2.9375 -5.5 C 2.894531 -4.738281 2.847656 -3.960938 2.796875 -3.171875 C 2.742188 -2.378906 2.6875 -1.597656 2.625 -0.828125 C 2.988281 -0.859375 3.394531 -0.890625 3.84375 -0.921875 C 4.300781 -0.953125 4.773438 -0.984375 5.265625 -1.015625 C 5.753906 -1.046875 6.222656 -1.070312 6.671875 -1.09375 C 7.128906 -1.113281 7.539062 -1.125 7.90625 -1.125 C 8.070312 -1.125 8.195312 -1.078125 8.28125 -0.984375 C 8.363281 -0.890625 8.40625 -0.769531 8.40625 -0.625 C 8.40625 -0.476562 8.363281 -0.351562 8.28125 -0.25 C 8.195312 -0.144531 8.070312 -0.09375 7.90625 -0.09375 C 7.695312 -0.09375 7.484375 -0.09375 7.265625 -0.09375 C 7.046875 -0.09375 6.835938 -0.0859375 6.640625 -0.078125 C 6.160156 -0.0664062 5.675781 -0.046875 5.1875 -0.015625 C 4.695312 0.015625 4.210938 0.0507812 3.734375 0.09375 C 3.253906 0.132812 2.769531 0.179688 2.28125 0.234375 Z M 2.28125 0.234375 "/></g></g></g><g fill="#fffdfc" fill-opacity="1"><g transform="translate(155.423342, 287.150896)"><g><path d="M 2.09375 -11.3125 C 2.113281 -11.488281 2.171875 -11.617188 2.265625 -11.703125 C 2.367188 -11.785156 2.488281 -11.828125 2.625 -11.828125 C 2.6875 -11.828125 2.75 -11.8125 2.8125 -11.78125 C 2.882812 -11.757812 2.945312 -11.726562 3 -11.6875 C 3.0625 -11.65625 3.109375 -11.609375 3.140625 -11.546875 C 3.179688 -11.484375 3.195312 -11.40625 3.1875 -11.3125 L 2.5 -0.3125 C 2.488281 -0.125 2.425781 0.0078125 2.3125 0.09375 C 2.195312 0.175781 2.070312 0.21875 1.9375 0.21875 C 1.800781 0.21875 1.675781 0.175781 1.5625 0.09375 C 1.445312 0.0078125 1.394531 -0.125 1.40625 -0.3125 Z M 2.984375 -10.78125 C 2.890625 -10.757812 2.8125 -10.757812 2.75 -10.78125 C 2.6875 -10.8125 2.625 -10.847656 2.5625 -10.890625 C 2.507812 -10.941406 2.46875 -11 2.4375 -11.0625 C 2.40625 -11.125 2.390625 -11.191406 2.390625 -11.265625 C 2.390625 -11.390625 2.460938 -11.503906 2.609375 -11.609375 C 2.753906 -11.722656 3 -11.796875 3.34375 -11.828125 C 3.6875 -11.859375 3.976562 -11.878906 4.21875 -11.890625 C 4.46875 -11.910156 4.703125 -11.921875 4.921875 -11.921875 C 5.984375 -11.921875 6.851562 -11.765625 7.53125 -11.453125 C 8.207031 -11.148438 8.707031 -10.75 9.03125 -10.25 C 9.363281 -9.757812 9.53125 -9.238281 9.53125 -8.6875 C 9.53125 -8.207031 9.410156 -7.742188 9.171875 -7.296875 C 8.929688 -6.859375 8.585938 -6.46875 8.140625 -6.125 C 7.691406 -5.78125 7.160156 -5.515625 6.546875 -5.328125 C 5.929688 -5.140625 5.25 -5.0625 4.5 -5.09375 C 5 -4.757812 5.472656 -4.429688 5.921875 -4.109375 C 6.378906 -3.785156 6.820312 -3.453125 7.25 -3.109375 C 7.6875 -2.765625 8.128906 -2.40625 8.578125 -2.03125 C 9.023438 -1.65625 9.488281 -1.253906 9.96875 -0.828125 C 10.03125 -0.765625 10.070312 -0.703125 10.09375 -0.640625 C 10.113281 -0.578125 10.125 -0.515625 10.125 -0.453125 C 10.125 -0.367188 10.101562 -0.28125 10.0625 -0.1875 C 10.019531 -0.101562 9.957031 -0.0351562 9.875 0.015625 C 9.789062 0.078125 9.695312 0.109375 9.59375 0.109375 C 9.53125 0.109375 9.460938 0.0859375 9.390625 0.046875 C 9.316406 0.015625 9.238281 -0.0351562 9.15625 -0.109375 C 8.664062 -0.535156 8.144531 -0.976562 7.59375 -1.4375 C 7.039062 -1.90625 6.472656 -2.363281 5.890625 -2.8125 C 5.304688 -3.269531 4.722656 -3.695312 4.140625 -4.09375 C 3.566406 -4.5 3.015625 -4.875 2.484375 -5.21875 L 2.703125 -6.109375 C 2.816406 -6.085938 3.023438 -6.054688 3.328125 -6.015625 C 3.640625 -5.984375 4.023438 -5.96875 4.484375 -5.96875 C 5.171875 -5.96875 5.757812 -6.046875 6.25 -6.203125 C 6.75 -6.367188 7.160156 -6.585938 7.484375 -6.859375 C 7.816406 -7.128906 8.0625 -7.425781 8.21875 -7.75 C 8.382812 -8.070312 8.46875 -8.390625 8.46875 -8.703125 C 8.46875 -9.140625 8.3125 -9.523438 8 -9.859375 C 7.6875 -10.191406 7.257812 -10.453125 6.71875 -10.640625 C 6.1875 -10.828125 5.566406 -10.921875 4.859375 -10.921875 C 4.617188 -10.921875 4.410156 -10.914062 4.234375 -10.90625 C 4.066406 -10.894531 3.890625 -10.878906 3.703125 -10.859375 C 3.515625 -10.847656 3.273438 -10.820312 2.984375 -10.78125 Z M 2.984375 -10.78125 "/></g></g></g><g fill="#fffdfc" fill-opacity="1"><g transform="translate(166.592967, 287.150896)"><g><path d="M 2.28125 0.234375 C 2.175781 0.234375 2.0625 0.222656 1.9375 0.203125 C 1.8125 0.191406 1.707031 0.144531 1.625 0.0625 C 1.539062 -0.0078125 1.5 -0.128906 1.5 -0.296875 C 1.59375 -1.484375 1.675781 -2.6875 1.75 -3.90625 C 1.832031 -5.125 1.90625 -6.332031 1.96875 -7.53125 C 2.03125 -8.726562 2.085938 -9.910156 2.140625 -11.078125 C 2.160156 -11.273438 2.210938 -11.425781 2.296875 -11.53125 C 2.390625 -11.644531 2.546875 -11.707031 2.765625 -11.71875 C 3.296875 -11.757812 3.835938 -11.789062 4.390625 -11.8125 C 4.953125 -11.84375 5.539062 -11.863281 6.15625 -11.875 C 6.78125 -11.894531 7.453125 -11.90625 8.171875 -11.90625 C 8.367188 -11.90625 8.507812 -11.859375 8.59375 -11.765625 C 8.6875 -11.679688 8.734375 -11.566406 8.734375 -11.421875 C 8.734375 -11.265625 8.6875 -11.132812 8.59375 -11.03125 C 8.507812 -10.9375 8.367188 -10.890625 8.171875 -10.890625 C 7.660156 -10.890625 7.179688 -10.882812 6.734375 -10.875 C 6.296875 -10.875 5.878906 -10.863281 5.484375 -10.84375 C 5.085938 -10.832031 4.703125 -10.816406 4.328125 -10.796875 C 3.953125 -10.785156 3.582031 -10.765625 3.21875 -10.734375 C 3.195312 -10.296875 3.171875 -9.832031 3.140625 -9.34375 C 3.117188 -8.863281 3.09375 -8.382812 3.0625 -7.90625 C 3.039062 -7.4375 3.015625 -6.976562 2.984375 -6.53125 C 3.453125 -6.59375 3.953125 -6.640625 4.484375 -6.671875 C 5.023438 -6.703125 5.550781 -6.722656 6.0625 -6.734375 C 6.570312 -6.742188 6.988281 -6.738281 7.3125 -6.71875 C 7.457031 -6.71875 7.578125 -6.671875 7.671875 -6.578125 C 7.765625 -6.492188 7.816406 -6.375 7.828125 -6.21875 C 7.828125 -6.070312 7.773438 -5.945312 7.671875 -5.84375 C 7.578125 -5.75 7.457031 -5.703125 7.3125 -5.703125 C 7.039062 -5.722656 6.660156 -5.726562 6.171875 -5.71875 C 5.691406 -5.71875 5.164062 -5.695312 4.59375 -5.65625 C 4.03125 -5.625 3.476562 -5.570312 2.9375 -5.5 C 2.894531 -4.738281 2.847656 -3.960938 2.796875 -3.171875 C 2.742188 -2.378906 2.6875 -1.597656 2.625 -0.828125 C 2.988281 -0.859375 3.394531 -0.890625 3.84375 -0.921875 C 4.300781 -0.953125 4.773438 -0.984375 5.265625 -1.015625 C 5.753906 -1.046875 6.222656 -1.070312 6.671875 -1.09375 C 7.128906 -1.113281 7.539062 -1.125 7.90625 -1.125 C 8.070312 -1.125 8.195312 -1.078125 8.28125 -0.984375 C 8.363281 -0.890625 8.40625 -0.769531 8.40625 -0.625 C 8.40625 -0.476562 8.363281 -0.351562 8.28125 -0.25 C 8.195312 -0.144531 8.070312 -0.09375 7.90625 -0.09375 C 7.695312 -0.09375 7.484375 -0.09375 7.265625 -0.09375 C 7.046875 -0.09375 6.835938 -0.0859375 6.640625 -0.078125 C 6.160156 -0.0664062 5.675781 -0.046875 5.1875 -0.015625 C 4.695312 0.015625 4.210938 0.0507812 3.734375 0.09375 C 3.253906 0.132812 2.769531 0.179688 2.28125 0.234375 Z M 2.28125 0.234375 "/></g></g></g><g fill="#fffdfc" fill-opacity="1"><g transform="translate(176.184445, 287.150896)"><g/></g></g><g fill="#fffdfc" fill-opacity="1"><g transform="translate(182.48172, 287.150896)"><g><path d="M 2.28125 0.234375 C 2.175781 0.234375 2.0625 0.222656 1.9375 0.203125 C 1.8125 0.191406 1.707031 0.144531 1.625 0.0625 C 1.539062 -0.0078125 1.5 -0.128906 1.5 -0.296875 C 1.59375 -1.484375 1.675781 -2.6875 1.75 -3.90625 C 1.832031 -5.125 1.90625 -6.332031 1.96875 -7.53125 C 2.03125 -8.726562 2.085938 -9.910156 2.140625 -11.078125 C 2.160156 -11.273438 2.210938 -11.425781 2.296875 -11.53125 C 2.390625 -11.644531 2.546875 -11.707031 2.765625 -11.71875 C 3.296875 -11.757812 3.835938 -11.789062 4.390625 -11.8125 C 4.953125 -11.84375 5.539062 -11.863281 6.15625 -11.875 C 6.78125 -11.894531 7.453125 -11.90625 8.171875 -11.90625 C 8.367188 -11.90625 8.507812 -11.859375 8.59375 -11.765625 C 8.6875 -11.679688 8.734375 -11.566406 8.734375 -11.421875 C 8.734375 -11.265625 8.6875 -11.132812 8.59375 -11.03125 C 8.507812 -10.9375 8.367188 -10.890625 8.171875 -10.890625 C 7.660156 -10.890625 7.179688 -10.882812 6.734375 -10.875 C 6.296875 -10.875 5.878906 -10.863281 5.484375 -10.84375 C 5.085938 -10.832031 4.703125 -10.816406 4.328125 -10.796875 C 3.953125 -10.785156 3.582031 -10.765625 3.21875 -10.734375 C 3.195312 -10.296875 3.171875 -9.832031 3.140625 -9.34375 C 3.117188 -8.863281 3.09375 -8.382812 3.0625 -7.90625 C 3.039062 -7.4375 3.015625 -6.976562 2.984375 -6.53125 C 3.453125 -6.59375 3.953125 -6.640625 4.484375 -6.671875 C 5.023438 -6.703125 5.550781 -6.722656 6.0625 -6.734375 C 6.570312 -6.742188 6.988281 -6.738281 7.3125 -6.71875 C 7.457031 -6.71875 7.578125 -6.671875 7.671875 -6.578125 C 7.765625 -6.492188 7.816406 -6.375 7.828125 -6.21875 C 7.828125 -6.070312 7.773438 -5.945312 7.671875 -5.84375 C 7.578125 -5.75 7.457031 -5.703125 7.3125 -5.703125 C 7.039062 -5.722656 6.660156 -5.726562 6.171875 -5.71875 C 5.691406 -5.71875 5.164062 -5.695312 4.59375 -5.65625 C 4.03125 -5.625 3.476562 -5.570312 2.9375 -5.5 C 2.894531 -4.738281 2.847656 -3.960938 2.796875 -3.171875 C 2.742188 -2.378906 2.6875 -1.597656 2.625 -0.828125 C 2.988281 -0.859375 3.394531 -0.890625 3.84375 -0.921875 C 4.300781 -0.953125 4.773438 -0.984375 5.265625 -1.015625 C 5.753906 -1.046875 6.222656 -1.070312 6.671875 -1.09375 C 7.128906 -1.113281 7.539062 -1.125 7.90625 -1.125 C 8.070312 -1.125 8.195312 -1.078125 8.28125 -0.984375 C 8.363281 -0.890625 8.40625 -0.769531 8.40625 -0.625 C 8.40625 -0.476562 8.363281 -0.351562 8.28125 -0.25 C 8.195312 -0.144531 8.070312 -0.09375 7.90625 -0.09375 C 7.695312 -0.09375 7.484375 -0.09375 7.265625 -0.09375 C 7.046875 -0.09375 6.835938 -0.0859375 6.640625 -0.078125 C 6.160156 -0.0664062 5.675781 -0.046875 5.1875 -0.015625 C 4.695312 0.015625 4.210938 0.0507812 3.734375 0.09375 C 3.253906 0.132812 2.769531 0.179688 2.28125 0.234375 Z M 2.28125 0.234375 "/></g></g></g><g fill="#fffdfc" fill-opacity="1"><g transform="translate(192.073198, 287.150896)"><g><path d="M 0.734375 -11.109375 C 0.679688 -11.242188 0.675781 -11.363281 0.71875 -11.46875 C 0.769531 -11.570312 0.847656 -11.648438 0.953125 -11.703125 C 1.054688 -11.753906 1.164062 -11.78125 1.28125 -11.78125 C 1.394531 -11.78125 1.488281 -11.757812 1.5625 -11.71875 C 1.644531 -11.675781 1.710938 -11.585938 1.765625 -11.453125 C 2.078125 -10.640625 2.375 -9.84375 2.65625 -9.0625 C 2.9375 -8.289062 3.195312 -7.507812 3.4375 -6.71875 C 3.6875 -5.9375 3.921875 -5.132812 4.140625 -4.3125 C 4.359375 -3.5 4.570312 -2.648438 4.78125 -1.765625 C 5.269531 -3.003906 5.753906 -4.1875 6.234375 -5.3125 C 6.710938 -6.4375 7.203125 -7.53125 7.703125 -8.59375 C 8.203125 -9.65625 8.710938 -10.703125 9.234375 -11.734375 C 9.273438 -11.835938 9.332031 -11.910156 9.40625 -11.953125 C 9.488281 -12.003906 9.570312 -12.03125 9.65625 -12.03125 C 9.800781 -12.03125 9.921875 -11.992188 10.015625 -11.921875 C 10.109375 -11.847656 10.171875 -11.753906 10.203125 -11.640625 C 10.242188 -11.523438 10.226562 -11.394531 10.15625 -11.25 C 9.644531 -10.25 9.144531 -9.21875 8.65625 -8.15625 C 8.164062 -7.101562 7.703125 -6.078125 7.265625 -5.078125 C 6.828125 -4.085938 6.425781 -3.164062 6.0625 -2.3125 C 5.707031 -1.457031 5.421875 -0.738281 5.203125 -0.15625 C 5.160156 -0.0195312 5.085938 0.0859375 4.984375 0.171875 C 4.890625 0.265625 4.773438 0.3125 4.640625 0.3125 C 4.515625 0.320312 4.398438 0.28125 4.296875 0.1875 C 4.203125 0.101562 4.140625 -0.015625 4.109375 -0.171875 C 3.878906 -1.128906 3.648438 -2.046875 3.421875 -2.921875 C 3.191406 -3.804688 2.945312 -4.679688 2.6875 -5.546875 C 2.425781 -6.421875 2.132812 -7.3125 1.8125 -8.21875 C 1.488281 -9.125 1.128906 -10.085938 0.734375 -11.109375 Z M 0.734375 -11.109375 "/></g></g></g><g fill="#fffdfc" fill-opacity="1"><g transform="translate(202.629948, 287.150896)"><g><path d="M 2.28125 0.234375 C 2.175781 0.234375 2.0625 0.222656 1.9375 0.203125 C 1.8125 0.191406 1.707031 0.144531 1.625 0.0625 C 1.539062 -0.0078125 1.5 -0.128906 1.5 -0.296875 C 1.59375 -1.484375 1.675781 -2.6875 1.75 -3.90625 C 1.832031 -5.125 1.90625 -6.332031 1.96875 -7.53125 C 2.03125 -8.726562 2.085938 -9.910156 2.140625 -11.078125 C 2.160156 -11.273438 2.210938 -11.425781 2.296875 -11.53125 C 2.390625 -11.644531 2.546875 -11.707031 2.765625 -11.71875 C 3.296875 -11.757812 3.835938 -11.789062 4.390625 -11.8125 C 4.953125 -11.84375 5.539062 -11.863281 6.15625 -11.875 C 6.78125 -11.894531 7.453125 -11.90625 8.171875 -11.90625 C 8.367188 -11.90625 8.507812 -11.859375 8.59375 -11.765625 C 8.6875 -11.679688 8.734375 -11.566406 8.734375 -11.421875 C 8.734375 -11.265625 8.6875 -11.132812 8.59375 -11.03125 C 8.507812 -10.9375 8.367188 -10.890625 8.171875 -10.890625 C 7.660156 -10.890625 7.179688 -10.882812 6.734375 -10.875 C 6.296875 -10.875 5.878906 -10.863281 5.484375 -10.84375 C 5.085938 -10.832031 4.703125 -10.816406 4.328125 -10.796875 C 3.953125 -10.785156 3.582031 -10.765625 3.21875 -10.734375 C 3.195312 -10.296875 3.171875 -9.832031 3.140625 -9.34375 C 3.117188 -8.863281 3.09375 -8.382812 3.0625 -7.90625 C 3.039062 -7.4375 3.015625 -6.976562 2.984375 -6.53125 C 3.453125 -6.59375 3.953125 -6.640625 4.484375 -6.671875 C 5.023438 -6.703125 5.550781 -6.722656 6.0625 -6.734375 C 6.570312 -6.742188 6.988281 -6.738281 7.3125 -6.71875 C 7.457031 -6.71875 7.578125 -6.671875 7.671875 -6.578125 C 7.765625 -6.492188 7.816406 -6.375 7.828125 -6.21875 C 7.828125 -6.070312 7.773438 -5.945312 7.671875 -5.84375 C 7.578125 -5.75 7.457031 -5.703125 7.3125 -5.703125 C 7.039062 -5.722656 6.660156 -5.726562 6.171875 -5.71875 C 5.691406 -5.71875 5.164062 -5.695312 4.59375 -5.65625 C 4.03125 -5.625 3.476562 -5.570312 2.9375 -5.5 C 2.894531 -4.738281 2.847656 -3.960938 2.796875 -3.171875 C 2.742188 -2.378906 2.6875 -1.597656 2.625 -0.828125 C 2.988281 -0.859375 3.394531 -0.890625 3.84375 -0.921875 C 4.300781 -0.953125 4.773438 -0.984375 5.265625 -1.015625 C 5.753906 -1.046875 6.222656 -1.070312 6.671875 -1.09375 C 7.128906 -1.113281 7.539062 -1.125 7.90625 -1.125 C 8.070312 -1.125 8.195312 -1.078125 8.28125 -0.984375 C 8.363281 -0.890625 8.40625 -0.769531 8.40625 -0.625 C 8.40625 -0.476562 8.363281 -0.351562 8.28125 -0.25 C 8.195312 -0.144531 8.070312 -0.09375 7.90625 -0.09375 C 7.695312 -0.09375 7.484375 -0.09375 7.265625 -0.09375 C 7.046875 -0.09375 6.835938 -0.0859375 6.640625 -0.078125 C 6.160156 -0.0664062 5.675781 -0.046875 5.1875 -0.015625 C 4.695312 0.015625 4.210938 0.0507812 3.734375 0.09375 C 3.253906 0.132812 2.769531 0.179688 2.28125 0.234375 Z M 2.28125 0.234375 "/></g></g></g><g fill="#fffdfc" fill-opacity="1"><g transform="translate(212.221426, 287.150896)"><g><path d="M 2.09375 -11.3125 C 2.113281 -11.488281 2.171875 -11.617188 2.265625 -11.703125 C 2.367188 -11.785156 2.488281 -11.828125 2.625 -11.828125 C 2.6875 -11.828125 2.75 -11.8125 2.8125 -11.78125 C 2.882812 -11.757812 2.945312 -11.726562 3 -11.6875 C 3.0625 -11.65625 3.109375 -11.609375 3.140625 -11.546875 C 3.179688 -11.484375 3.195312 -11.40625 3.1875 -11.3125 L 2.5 -0.3125 C 2.488281 -0.125 2.425781 0.0078125 2.3125 0.09375 C 2.195312 0.175781 2.070312 0.21875 1.9375 0.21875 C 1.800781 0.21875 1.675781 0.175781 1.5625 0.09375 C 1.445312 0.0078125 1.394531 -0.125 1.40625 -0.3125 Z M 2.984375 -10.78125 C 2.890625 -10.757812 2.8125 -10.757812 2.75 -10.78125 C 2.6875 -10.8125 2.625 -10.847656 2.5625 -10.890625 C 2.507812 -10.941406 2.46875 -11 2.4375 -11.0625 C 2.40625 -11.125 2.390625 -11.191406 2.390625 -11.265625 C 2.390625 -11.390625 2.460938 -11.503906 2.609375 -11.609375 C 2.753906 -11.722656 3 -11.796875 3.34375 -11.828125 C 3.6875 -11.859375 3.976562 -11.878906 4.21875 -11.890625 C 4.46875 -11.910156 4.703125 -11.921875 4.921875 -11.921875 C 5.984375 -11.921875 6.851562 -11.765625 7.53125 -11.453125 C 8.207031 -11.148438 8.707031 -10.75 9.03125 -10.25 C 9.363281 -9.757812 9.53125 -9.238281 9.53125 -8.6875 C 9.53125 -8.207031 9.410156 -7.742188 9.171875 -7.296875 C 8.929688 -6.859375 8.585938 -6.46875 8.140625 -6.125 C 7.691406 -5.78125 7.160156 -5.515625 6.546875 -5.328125 C 5.929688 -5.140625 5.25 -5.0625 4.5 -5.09375 C 5 -4.757812 5.472656 -4.429688 5.921875 -4.109375 C 6.378906 -3.785156 6.820312 -3.453125 7.25 -3.109375 C 7.6875 -2.765625 8.128906 -2.40625 8.578125 -2.03125 C 9.023438 -1.65625 9.488281 -1.253906 9.96875 -0.828125 C 10.03125 -0.765625 10.070312 -0.703125 10.09375 -0.640625 C 10.113281 -0.578125 10.125 -0.515625 10.125 -0.453125 C 10.125 -0.367188 10.101562 -0.28125 10.0625 -0.1875 C 10.019531 -0.101562 9.957031 -0.0351562 9.875 0.015625 C 9.789062 0.078125 9.695312 0.109375 9.59375 0.109375 C 9.53125 0.109375 9.460938 0.0859375 9.390625 0.046875 C 9.316406 0.015625 9.238281 -0.0351562 9.15625 -0.109375 C 8.664062 -0.535156 8.144531 -0.976562 7.59375 -1.4375 C 7.039062 -1.90625 6.472656 -2.363281 5.890625 -2.8125 C 5.304688 -3.269531 4.722656 -3.695312 4.140625 -4.09375 C 3.566406 -4.5 3.015625 -4.875 2.484375 -5.21875 L 2.703125 -6.109375 C 2.816406 -6.085938 3.023438 -6.054688 3.328125 -6.015625 C 3.640625 -5.984375 4.023438 -5.96875 4.484375 -5.96875 C 5.171875 -5.96875 5.757812 -6.046875 6.25 -6.203125 C 6.75 -6.367188 7.160156 -6.585938 7.484375 -6.859375 C 7.816406 -7.128906 8.0625 -7.425781 8.21875 -7.75 C 8.382812 -8.070312 8.46875 -8.390625 8.46875 -8.703125 C 8.46875 -9.140625 8.3125 -9.523438 8 -9.859375 C 7.6875 -10.191406 7.257812 -10.453125 6.71875 -10.640625 C 6.1875 -10.828125 5.566406 -10.921875 4.859375 -10.921875 C 4.617188 -10.921875 4.410156 -10.914062 4.234375 -10.90625 C 4.066406 -10.894531 3.890625 -10.878906 3.703125 -10.859375 C 3.515625 -10.847656 3.273438 -10.820312 2.984375 -10.78125 Z M 2.984375 -10.78125 "/></g></g></g><g fill="#fffdfc" fill-opacity="1"><g transform="translate(223.391051, 287.150896)"><g><path d="M 0.984375 -11.078125 C 0.898438 -11.222656 0.875 -11.359375 0.90625 -11.484375 C 0.945312 -11.609375 1.015625 -11.707031 1.109375 -11.78125 C 1.210938 -11.851562 1.332031 -11.890625 1.46875 -11.890625 C 1.5625 -11.890625 1.648438 -11.863281 1.734375 -11.8125 C 1.816406 -11.769531 1.882812 -11.703125 1.9375 -11.609375 C 2.070312 -11.335938 2.25 -11.007812 2.46875 -10.625 C 2.695312 -10.238281 2.9375 -9.816406 3.1875 -9.359375 C 3.4375 -8.910156 3.675781 -8.484375 3.90625 -8.078125 C 4.132812 -7.671875 4.332031 -7.316406 4.5 -7.015625 C 4.664062 -6.722656 4.773438 -6.523438 4.828125 -6.421875 C 5.242188 -7.078125 5.648438 -7.707031 6.046875 -8.3125 C 6.441406 -8.914062 6.828125 -9.492188 7.203125 -10.046875 C 7.585938 -10.609375 7.96875 -11.140625 8.34375 -11.640625 C 8.40625 -11.722656 8.46875 -11.785156 8.53125 -11.828125 C 8.59375 -11.867188 8.664062 -11.890625 8.75 -11.890625 C 8.882812 -11.890625 9.003906 -11.851562 9.109375 -11.78125 C 9.222656 -11.707031 9.289062 -11.601562 9.3125 -11.46875 C 9.34375 -11.34375 9.316406 -11.210938 9.234375 -11.078125 C 8.796875 -10.453125 8.359375 -9.828125 7.921875 -9.203125 C 7.484375 -8.578125 7.046875 -7.9375 6.609375 -7.28125 C 6.179688 -6.625 5.75 -5.953125 5.3125 -5.265625 C 5.320312 -4.460938 5.28125 -3.65625 5.1875 -2.84375 C 5.09375 -2.039062 5 -1.222656 4.90625 -0.390625 C 4.894531 -0.222656 4.84375 -0.09375 4.75 0 C 4.65625 0.101562 4.523438 0.160156 4.359375 0.171875 C 4.203125 0.179688 4.066406 0.128906 3.953125 0.015625 C 3.847656 -0.0976562 3.800781 -0.234375 3.8125 -0.390625 C 3.90625 -1.222656 4 -2.03125 4.09375 -2.8125 C 4.195312 -3.601562 4.242188 -4.398438 4.234375 -5.203125 C 3.742188 -6.222656 3.207031 -7.21875 2.625 -8.1875 C 2.050781 -9.15625 1.503906 -10.117188 0.984375 -11.078125 Z M 0.984375 -11.078125 "/></g></g></g><g fill="#fffdfc" fill-opacity="1"><g transform="translate(233.16639, 287.150896)"><g/></g></g><g fill="#fffdfc" fill-opacity="1"><g transform="translate(239.463665, 287.150896)"><g><path d="M 0.875 -11.015625 C 0.832031 -11.210938 0.863281 -11.375 0.96875 -11.5 C 1.082031 -11.625 1.234375 -11.6875 1.421875 -11.6875 C 1.535156 -11.6875 1.640625 -11.65625 1.734375 -11.59375 C 1.835938 -11.53125 1.90625 -11.4375 1.9375 -11.3125 C 2.0625 -10.726562 2.191406 -10.148438 2.328125 -9.578125 C 2.460938 -9.015625 2.597656 -8.441406 2.734375 -7.859375 C 2.867188 -7.285156 3.007812 -6.695312 3.15625 -6.09375 C 3.300781 -5.5 3.445312 -4.878906 3.59375 -4.234375 C 3.75 -3.585938 3.90625 -2.910156 4.0625 -2.203125 C 4.257812 -2.878906 4.457031 -3.546875 4.65625 -4.203125 C 4.863281 -4.859375 5.070312 -5.488281 5.28125 -6.09375 C 5.5 -6.707031 5.726562 -7.320312 5.96875 -7.9375 C 6.21875 -8.550781 6.472656 -9.15625 6.734375 -9.75 C 6.992188 -10.351562 7.269531 -10.960938 7.5625 -11.578125 C 7.613281 -11.691406 7.679688 -11.773438 7.765625 -11.828125 C 7.859375 -11.890625 7.960938 -11.921875 8.078125 -11.921875 C 8.296875 -11.921875 8.4375 -11.851562 8.5 -11.71875 C 8.5625 -11.582031 8.617188 -11.347656 8.671875 -11.015625 C 8.816406 -10.160156 8.976562 -9.347656 9.15625 -8.578125 C 9.332031 -7.816406 9.523438 -7.078125 9.734375 -6.359375 C 9.953125 -5.640625 10.171875 -4.925781 10.390625 -4.21875 C 10.617188 -3.507812 10.847656 -2.78125 11.078125 -2.03125 C 11.265625 -2.738281 11.453125 -3.421875 11.640625 -4.078125 C 11.828125 -4.742188 12.015625 -5.382812 12.203125 -6 C 12.398438 -6.625 12.601562 -7.242188 12.8125 -7.859375 C 13.019531 -8.484375 13.234375 -9.109375 13.453125 -9.734375 C 13.679688 -10.367188 13.910156 -11.019531 14.140625 -11.6875 C 14.179688 -11.800781 14.25 -11.890625 14.34375 -11.953125 C 14.4375 -12.015625 14.546875 -12.046875 14.671875 -12.046875 C 14.804688 -12.046875 14.914062 -12.015625 15 -11.953125 C 15.09375 -11.890625 15.15625 -11.8125 15.1875 -11.71875 C 15.226562 -11.625 15.222656 -11.515625 15.171875 -11.390625 C 14.992188 -10.941406 14.796875 -10.410156 14.578125 -9.796875 C 14.359375 -9.191406 14.132812 -8.535156 13.90625 -7.828125 C 13.675781 -7.117188 13.445312 -6.398438 13.21875 -5.671875 C 13 -4.941406 12.785156 -4.238281 12.578125 -3.5625 C 12.367188 -2.882812 12.179688 -2.265625 12.015625 -1.703125 C 11.859375 -1.140625 11.742188 -0.675781 11.671875 -0.3125 C 11.617188 -0.113281 11.539062 0.03125 11.4375 0.125 C 11.332031 0.21875 11.21875 0.265625 11.09375 0.265625 C 10.957031 0.265625 10.835938 0.21875 10.734375 0.125 C 10.640625 0.03125 10.5625 -0.109375 10.5 -0.296875 C 10.375 -0.722656 10.222656 -1.222656 10.046875 -1.796875 C 9.867188 -2.367188 9.675781 -2.984375 9.46875 -3.640625 C 9.269531 -4.296875 9.066406 -4.972656 8.859375 -5.671875 C 8.648438 -6.378906 8.457031 -7.082031 8.28125 -7.78125 C 8.101562 -8.476562 7.953125 -9.144531 7.828125 -9.78125 C 7.515625 -9.050781 7.175781 -8.226562 6.8125 -7.3125 C 6.457031 -6.40625 6.09375 -5.378906 5.71875 -4.234375 C 5.351562 -3.085938 4.976562 -1.796875 4.59375 -0.359375 C 4.539062 -0.171875 4.460938 -0.0351562 4.359375 0.046875 C 4.253906 0.140625 4.132812 0.1875 4 0.1875 C 3.875 0.1875 3.765625 0.140625 3.671875 0.046875 C 3.578125 -0.0351562 3.503906 -0.171875 3.453125 -0.359375 Z M 0.875 -11.015625 "/></g></g></g><g fill="#fffdfc" fill-opacity="1"><g transform="translate(255.061301, 287.150896)"><g><path d="M 8.421875 -11.6875 C 8.585938 -11.632812 8.710938 -11.554688 8.796875 -11.453125 C 8.878906 -11.359375 8.921875 -11.242188 8.921875 -11.109375 C 8.921875 -11.046875 8.90625 -10.976562 8.875 -10.90625 C 8.851562 -10.84375 8.804688 -10.785156 8.734375 -10.734375 C 8.671875 -10.679688 8.597656 -10.644531 8.515625 -10.625 C 8.429688 -10.613281 8.320312 -10.628906 8.1875 -10.671875 C 8.050781 -10.742188 7.863281 -10.804688 7.625 -10.859375 C 7.382812 -10.921875 7.085938 -10.953125 6.734375 -10.953125 C 6.015625 -10.953125 5.375 -10.789062 4.8125 -10.46875 C 4.25 -10.15625 3.769531 -9.726562 3.375 -9.1875 C 2.988281 -8.644531 2.691406 -8.039062 2.484375 -7.375 C 2.273438 -6.71875 2.171875 -6.054688 2.171875 -5.390625 C 2.171875 -4.765625 2.257812 -4.171875 2.4375 -3.609375 C 2.625 -3.046875 2.878906 -2.539062 3.203125 -2.09375 C 3.535156 -1.65625 3.945312 -1.3125 4.4375 -1.0625 C 4.925781 -0.8125 5.472656 -0.6875 6.078125 -0.6875 C 6.828125 -0.6875 7.503906 -0.882812 8.109375 -1.28125 C 8.722656 -1.6875 9.207031 -2.273438 9.5625 -3.046875 C 9.914062 -3.828125 10.09375 -4.773438 10.09375 -5.890625 C 10.09375 -6.535156 10.03125 -7.128906 9.90625 -7.671875 C 9.789062 -8.222656 9.640625 -8.695312 9.453125 -9.09375 C 9.273438 -9.5 9.101562 -9.8125 8.9375 -10.03125 C 8.820312 -10.1875 8.734375 -10.300781 8.671875 -10.375 C 8.617188 -10.457031 8.59375 -10.550781 8.59375 -10.65625 C 8.59375 -10.71875 8.609375 -10.78125 8.640625 -10.84375 C 8.671875 -10.90625 8.710938 -10.960938 8.765625 -11.015625 C 8.816406 -11.066406 8.875 -11.109375 8.9375 -11.140625 C 9.007812 -11.171875 9.082031 -11.1875 9.15625 -11.1875 C 9.289062 -11.1875 9.410156 -11.132812 9.515625 -11.03125 C 9.628906 -10.925781 9.726562 -10.800781 9.8125 -10.65625 C 9.90625 -10.519531 9.988281 -10.394531 10.0625 -10.28125 C 10.457031 -9.675781 10.742188 -8.988281 10.921875 -8.21875 C 11.109375 -7.457031 11.203125 -6.6875 11.203125 -5.90625 C 11.203125 -5.0625 11.085938 -4.265625 10.859375 -3.515625 C 10.628906 -2.773438 10.296875 -2.113281 9.859375 -1.53125 C 9.421875 -0.957031 8.878906 -0.503906 8.234375 -0.171875 C 7.597656 0.148438 6.867188 0.3125 6.046875 0.3125 C 5.367188 0.3125 4.757812 0.195312 4.21875 -0.03125 C 3.6875 -0.269531 3.222656 -0.582031 2.828125 -0.96875 C 2.429688 -1.363281 2.101562 -1.804688 1.84375 -2.296875 C 1.582031 -2.796875 1.390625 -3.3125 1.265625 -3.84375 C 1.140625 -4.382812 1.078125 -4.910156 1.078125 -5.421875 C 1.078125 -6.242188 1.21875 -7.046875 1.5 -7.828125 C 1.78125 -8.609375 2.171875 -9.3125 2.671875 -9.9375 C 3.179688 -10.570312 3.773438 -11.070312 4.453125 -11.4375 C 5.140625 -11.8125 5.882812 -12 6.6875 -12 C 6.957031 -12 7.25 -11.96875 7.5625 -11.90625 C 7.875 -11.851562 8.160156 -11.78125 8.421875 -11.6875 Z M 8.421875 -11.6875 "/></g></g></g><g fill="#fffdfc" fill-opacity="1"><g transform="translate(267.288128, 287.150896)"><g><path d="M 2.09375 -11.3125 C 2.113281 -11.488281 2.171875 -11.617188 2.265625 -11.703125 C 2.367188 -11.785156 2.488281 -11.828125 2.625 -11.828125 C 2.6875 -11.828125 2.75 -11.8125 2.8125 -11.78125 C 2.882812 -11.757812 2.945312 -11.726562 3 -11.6875 C 3.0625 -11.65625 3.109375 -11.609375 3.140625 -11.546875 C 3.179688 -11.484375 3.195312 -11.40625 3.1875 -11.3125 L 2.5 -0.3125 C 2.488281 -0.125 2.425781 0.0078125 2.3125 0.09375 C 2.195312 0.175781 2.070312 0.21875 1.9375 0.21875 C 1.800781 0.21875 1.675781 0.175781 1.5625 0.09375 C 1.445312 0.0078125 1.394531 -0.125 1.40625 -0.3125 Z M 2.984375 -10.78125 C 2.890625 -10.757812 2.8125 -10.757812 2.75 -10.78125 C 2.6875 -10.8125 2.625 -10.847656 2.5625 -10.890625 C 2.507812 -10.941406 2.46875 -11 2.4375 -11.0625 C 2.40625 -11.125 2.390625 -11.191406 2.390625 -11.265625 C 2.390625 -11.390625 2.460938 -11.503906 2.609375 -11.609375 C 2.753906 -11.722656 3 -11.796875 3.34375 -11.828125 C 3.6875 -11.859375 3.976562 -11.878906 4.21875 -11.890625 C 4.46875 -11.910156 4.703125 -11.921875 4.921875 -11.921875 C 5.984375 -11.921875 6.851562 -11.765625 7.53125 -11.453125 C 8.207031 -11.148438 8.707031 -10.75 9.03125 -10.25 C 9.363281 -9.757812 9.53125 -9.238281 9.53125 -8.6875 C 9.53125 -8.207031 9.410156 -7.742188 9.171875 -7.296875 C 8.929688 -6.859375 8.585938 -6.46875 8.140625 -6.125 C 7.691406 -5.78125 7.160156 -5.515625 6.546875 -5.328125 C 5.929688 -5.140625 5.25 -5.0625 4.5 -5.09375 C 5 -4.757812 5.472656 -4.429688 5.921875 -4.109375 C 6.378906 -3.785156 6.820312 -3.453125 7.25 -3.109375 C 7.6875 -2.765625 8.128906 -2.40625 8.578125 -2.03125 C 9.023438 -1.65625 9.488281 -1.253906 9.96875 -0.828125 C 10.03125 -0.765625 10.070312 -0.703125 10.09375 -0.640625 C 10.113281 -0.578125 10.125 -0.515625 10.125 -0.453125 C 10.125 -0.367188 10.101562 -0.28125 10.0625 -0.1875 C 10.019531 -0.101562 9.957031 -0.0351562 9.875 0.015625 C 9.789062 0.078125 9.695312 0.109375 9.59375 0.109375 C 9.53125 0.109375 9.460938 0.0859375 9.390625 0.046875 C 9.316406 0.015625 9.238281 -0.0351562 9.15625 -0.109375 C 8.664062 -0.535156 8.144531 -0.976562 7.59375 -1.4375 C 7.039062 -1.90625 6.472656 -2.363281 5.890625 -2.8125 C 5.304688 -3.269531 4.722656 -3.695312 4.140625 -4.09375 C 3.566406 -4.5 3.015625 -4.875 2.484375 -5.21875 L 2.703125 -6.109375 C 2.816406 -6.085938 3.023438 -6.054688 3.328125 -6.015625 C 3.640625 -5.984375 4.023438 -5.96875 4.484375 -5.96875 C 5.171875 -5.96875 5.757812 -6.046875 6.25 -6.203125 C 6.75 -6.367188 7.160156 -6.585938 7.484375 -6.859375 C 7.816406 -7.128906 8.0625 -7.425781 8.21875 -7.75 C 8.382812 -8.070312 8.46875 -8.390625 8.46875 -8.703125 C 8.46875 -9.140625 8.3125 -9.523438 8 -9.859375 C 7.6875 -10.191406 7.257812 -10.453125 6.71875 -10.640625 C 6.1875 -10.828125 5.566406 -10.921875 4.859375 -10.921875 C 4.617188 -10.921875 4.410156 -10.914062 4.234375 -10.90625 C 4.066406 -10.894531 3.890625 -10.878906 3.703125 -10.859375 C 3.515625 -10.847656 3.273438 -10.820312 2.984375 -10.78125 Z M 2.984375 -10.78125 "/></g></g></g><g fill="#fffdfc" fill-opacity="1"><g transform="translate(278.457753, 287.150896)"><g><path d="M 1.328125 -0.328125 C 1.378906 -1.398438 1.441406 -2.46875 1.515625 -3.53125 C 1.597656 -4.601562 1.675781 -5.675781 1.75 -6.75 C 1.800781 -7.414062 1.84375 -8.085938 1.875 -8.765625 C 1.914062 -9.441406 1.941406 -10.117188 1.953125 -10.796875 C 1.953125 -10.929688 1.984375 -11.054688 2.046875 -11.171875 C 2.117188 -11.296875 2.226562 -11.378906 2.375 -11.421875 C 2.601562 -11.472656 2.828125 -11.515625 3.046875 -11.546875 C 3.273438 -11.585938 3.492188 -11.617188 3.703125 -11.640625 C 3.921875 -11.660156 4.128906 -11.675781 4.328125 -11.6875 C 4.535156 -11.695312 4.738281 -11.703125 4.9375 -11.703125 C 5.96875 -11.703125 6.863281 -11.546875 7.625 -11.234375 C 8.382812 -10.929688 9.015625 -10.507812 9.515625 -9.96875 C 10.023438 -9.4375 10.40625 -8.828125 10.65625 -8.140625 C 10.90625 -7.460938 11.03125 -6.765625 11.03125 -6.046875 C 11.03125 -5.253906 10.882812 -4.476562 10.59375 -3.71875 C 10.300781 -2.957031 9.875 -2.265625 9.3125 -1.640625 C 8.75 -1.023438 8.050781 -0.53125 7.21875 -0.15625 C 6.382812 0.207031 5.421875 0.390625 4.328125 0.390625 C 4.015625 0.390625 3.675781 0.367188 3.3125 0.328125 C 2.957031 0.296875 2.601562 0.242188 2.25 0.171875 C 2.1875 0.210938 2.117188 0.242188 2.046875 0.265625 C 1.984375 0.285156 1.921875 0.296875 1.859375 0.296875 C 1.710938 0.296875 1.585938 0.242188 1.484375 0.140625 C 1.378906 0.046875 1.328125 -0.109375 1.328125 -0.328125 Z M 2.453125 -0.828125 C 2.546875 -0.796875 2.671875 -0.769531 2.828125 -0.75 C 2.984375 -0.726562 3.15625 -0.707031 3.34375 -0.6875 C 3.53125 -0.664062 3.710938 -0.648438 3.890625 -0.640625 C 4.066406 -0.628906 4.207031 -0.625 4.3125 -0.625 C 5.0625 -0.625 5.773438 -0.75 6.453125 -1 C 7.128906 -1.25 7.726562 -1.609375 8.25 -2.078125 C 8.78125 -2.554688 9.195312 -3.128906 9.5 -3.796875 C 9.800781 -4.472656 9.953125 -5.234375 9.953125 -6.078125 C 9.953125 -6.878906 9.804688 -7.566406 9.515625 -8.140625 C 9.234375 -8.722656 8.851562 -9.203125 8.375 -9.578125 C 7.90625 -9.953125 7.390625 -10.234375 6.828125 -10.421875 C 6.273438 -10.609375 5.71875 -10.703125 5.15625 -10.703125 C 4.9375 -10.703125 4.6875 -10.691406 4.40625 -10.671875 C 4.132812 -10.648438 3.867188 -10.625 3.609375 -10.59375 C 3.359375 -10.5625 3.148438 -10.523438 2.984375 -10.484375 C 2.960938 -9.859375 2.9375 -9.226562 2.90625 -8.59375 C 2.875 -7.957031 2.84375 -7.304688 2.8125 -6.640625 C 2.78125 -5.984375 2.738281 -5.320312 2.6875 -4.65625 C 2.644531 -4 2.601562 -3.351562 2.5625 -2.71875 C 2.53125 -2.082031 2.492188 -1.453125 2.453125 -0.828125 Z M 2.453125 -0.828125 "/></g></g></g><g fill="#fffdfc" fill-opacity="1"><g transform="translate(160.287607, 304.160401)"><g><path d="M 2.421875 -0.265625 C 2.398438 -0.128906 2.335938 -0.03125 2.234375 0.03125 C 2.140625 0.09375 2.023438 0.125 1.890625 0.125 C 1.710938 0.125 1.578125 0.0703125 1.484375 -0.03125 C 1.398438 -0.132812 1.363281 -0.273438 1.375 -0.453125 C 1.519531 -1.640625 1.628906 -2.710938 1.703125 -3.671875 C 1.773438 -4.640625 1.820312 -5.539062 1.84375 -6.375 C 1.875 -7.207031 1.890625 -8.019531 1.890625 -8.8125 C 1.890625 -9.601562 1.878906 -10.425781 1.859375 -11.28125 C 1.847656 -11.457031 1.894531 -11.585938 2 -11.671875 C 2.113281 -11.765625 2.25 -11.8125 2.40625 -11.8125 C 2.53125 -11.8125 2.628906 -11.785156 2.703125 -11.734375 C 2.785156 -11.691406 2.863281 -11.609375 2.9375 -11.484375 C 3.3125 -10.835938 3.675781 -10.191406 4.03125 -9.546875 C 4.382812 -8.910156 4.738281 -8.273438 5.09375 -7.640625 C 5.457031 -7.015625 5.820312 -6.375 6.1875 -5.71875 C 6.550781 -5.070312 6.921875 -4.40625 7.296875 -3.71875 C 7.710938 -4.332031 8.125 -4.945312 8.53125 -5.5625 C 8.9375 -6.1875 9.320312 -6.816406 9.6875 -7.453125 C 10.0625 -8.097656 10.421875 -8.738281 10.765625 -9.375 C 11.117188 -10.007812 11.453125 -10.648438 11.765625 -11.296875 C 11.828125 -11.421875 11.898438 -11.507812 11.984375 -11.5625 C 12.078125 -11.625 12.195312 -11.65625 12.34375 -11.65625 C 12.488281 -11.65625 12.609375 -11.601562 12.703125 -11.5 C 12.804688 -11.394531 12.859375 -11.257812 12.859375 -11.09375 C 12.878906 -10.28125 12.890625 -9.519531 12.890625 -8.8125 C 12.890625 -8.113281 12.882812 -7.421875 12.875 -6.734375 C 12.863281 -6.054688 12.847656 -5.316406 12.828125 -4.515625 C 12.804688 -3.835938 12.773438 -3.144531 12.734375 -2.4375 C 12.703125 -1.726562 12.660156 -1.015625 12.609375 -0.296875 C 12.597656 -0.117188 12.539062 0.0078125 12.4375 0.09375 C 12.34375 0.175781 12.222656 0.21875 12.078125 0.21875 C 11.910156 0.21875 11.773438 0.175781 11.671875 0.09375 C 11.578125 0.0078125 11.535156 -0.117188 11.546875 -0.296875 L 11.703125 -2.734375 C 11.722656 -3.203125 11.738281 -3.671875 11.75 -4.140625 C 11.769531 -4.617188 11.785156 -5.113281 11.796875 -5.625 C 11.816406 -6.144531 11.828125 -6.703125 11.828125 -7.296875 C 11.835938 -7.890625 11.847656 -8.539062 11.859375 -9.25 C 11.460938 -8.488281 11.050781 -7.75 10.625 -7.03125 C 10.207031 -6.3125 9.757812 -5.585938 9.28125 -4.859375 C 8.800781 -4.128906 8.289062 -3.394531 7.75 -2.65625 C 7.6875 -2.550781 7.613281 -2.472656 7.53125 -2.421875 C 7.445312 -2.367188 7.347656 -2.34375 7.234375 -2.34375 C 7.128906 -2.34375 7.035156 -2.367188 6.953125 -2.421875 C 6.867188 -2.472656 6.789062 -2.554688 6.71875 -2.671875 C 6.425781 -3.179688 6.117188 -3.710938 5.796875 -4.265625 C 5.484375 -4.816406 5.164062 -5.382812 4.84375 -5.96875 C 4.519531 -6.550781 4.191406 -7.132812 3.859375 -7.71875 C 3.535156 -8.300781 3.21875 -8.878906 2.90625 -9.453125 C 2.914062 -8.515625 2.914062 -7.632812 2.90625 -6.8125 C 2.894531 -6 2.867188 -5.222656 2.828125 -4.484375 C 2.796875 -3.753906 2.742188 -3.039062 2.671875 -2.34375 C 2.609375 -1.644531 2.523438 -0.953125 2.421875 -0.265625 Z M 2.421875 -0.265625 "/></g></g></g><g fill="#fffdfc" fill-opacity="1"><g transform="translate(174.674817, 304.160401)"><g><path d="M 1.5 -0.1875 C 1.457031 -0.0507812 1.390625 0.0507812 1.296875 0.125 C 1.203125 0.195312 1.082031 0.226562 0.9375 0.21875 C 0.800781 0.207031 0.675781 0.148438 0.5625 0.046875 C 0.457031 -0.046875 0.410156 -0.171875 0.421875 -0.328125 C 0.421875 -0.378906 0.4375 -0.441406 0.46875 -0.515625 C 0.5 -0.597656 0.550781 -0.738281 0.625 -0.9375 C 1 -1.820312 1.375 -2.695312 1.75 -3.5625 C 2.132812 -4.4375 2.535156 -5.3125 2.953125 -6.1875 C 3.367188 -7.0625 3.789062 -7.953125 4.21875 -8.859375 C 4.65625 -9.773438 5.097656 -10.722656 5.546875 -11.703125 C 5.597656 -11.816406 5.664062 -11.90625 5.75 -11.96875 C 5.84375 -12.039062 5.953125 -12.082031 6.078125 -12.09375 C 6.210938 -12.09375 6.332031 -12.050781 6.4375 -11.96875 C 6.539062 -11.894531 6.613281 -11.789062 6.65625 -11.65625 C 6.71875 -11.53125 6.832031 -11.242188 7 -10.796875 C 7.164062 -10.347656 7.375 -9.800781 7.625 -9.15625 C 7.875 -8.519531 8.144531 -7.828125 8.4375 -7.078125 C 8.726562 -6.328125 9.019531 -5.570312 9.3125 -4.8125 C 9.601562 -4.050781 9.878906 -3.34375 10.140625 -2.6875 C 10.410156 -2.03125 10.632812 -1.46875 10.8125 -1 C 10.863281 -0.894531 10.921875 -0.765625 10.984375 -0.609375 C 11.046875 -0.460938 11.078125 -0.347656 11.078125 -0.265625 C 11.078125 -0.0859375 11.019531 0.046875 10.90625 0.140625 C 10.800781 0.234375 10.675781 0.28125 10.53125 0.28125 C 10.4375 0.28125 10.335938 0.25 10.234375 0.1875 C 10.128906 0.132812 10.054688 0.0507812 10.015625 -0.0625 C 9.640625 -0.96875 9.269531 -1.910156 8.90625 -2.890625 C 8.539062 -3.867188 8.175781 -4.828125 7.8125 -5.765625 C 7.457031 -6.703125 7.125 -7.570312 6.8125 -8.375 C 6.507812 -9.1875 6.253906 -9.875 6.046875 -10.4375 C 5.535156 -9.3125 5.015625 -8.175781 4.484375 -7.03125 C 3.960938 -5.894531 3.445312 -4.753906 2.9375 -3.609375 C 2.425781 -2.472656 1.945312 -1.332031 1.5 -0.1875 Z M 2.359375 -4.4375 C 2.359375 -4.539062 2.394531 -4.625 2.46875 -4.6875 C 2.539062 -4.757812 2.625 -4.816406 2.71875 -4.859375 C 2.820312 -4.910156 2.929688 -4.945312 3.046875 -4.96875 C 3.273438 -5.019531 3.59375 -5.0625 4 -5.09375 C 4.414062 -5.132812 4.898438 -5.160156 5.453125 -5.171875 C 6.015625 -5.179688 6.609375 -5.179688 7.234375 -5.171875 C 7.429688 -5.160156 7.625 -5.15625 7.8125 -5.15625 C 8.007812 -5.164062 8.1875 -5.175781 8.34375 -5.1875 C 8.507812 -5.195312 8.660156 -5.207031 8.796875 -5.21875 C 8.941406 -5.238281 9.070312 -5.253906 9.1875 -5.265625 C 9.363281 -5.285156 9.503906 -5.238281 9.609375 -5.125 C 9.710938 -5.007812 9.765625 -4.875 9.765625 -4.71875 C 9.765625 -4.582031 9.71875 -4.472656 9.625 -4.390625 C 9.539062 -4.316406 9.429688 -4.257812 9.296875 -4.21875 C 9.160156 -4.1875 9.015625 -4.164062 8.859375 -4.15625 C 8.703125 -4.144531 8.5625 -4.140625 8.4375 -4.140625 C 7.84375 -4.140625 7.226562 -4.132812 6.59375 -4.125 C 5.96875 -4.125 5.34375 -4.109375 4.71875 -4.078125 C 4.09375 -4.046875 3.492188 -3.992188 2.921875 -3.921875 C 2.816406 -3.910156 2.695312 -3.957031 2.5625 -4.0625 C 2.425781 -4.175781 2.359375 -4.300781 2.359375 -4.4375 Z M 2.359375 -4.4375 "/></g></g></g><g fill="#fffdfc" fill-opacity="1"><g transform="translate(186.3807, 304.160401)"><g><path d="M 1.21875 -10.75 C 1.0625 -10.75 0.9375 -10.796875 0.84375 -10.890625 C 0.75 -10.984375 0.703125 -11.109375 0.703125 -11.265625 C 0.703125 -11.421875 0.75 -11.546875 0.84375 -11.640625 C 0.9375 -11.734375 1.0625 -11.78125 1.21875 -11.78125 C 1.582031 -11.769531 1.992188 -11.753906 2.453125 -11.734375 C 2.910156 -11.722656 3.375 -11.710938 3.84375 -11.703125 C 4.3125 -11.703125 4.738281 -11.703125 5.125 -11.703125 C 5.875 -11.703125 6.625 -11.707031 7.375 -11.71875 C 8.132812 -11.738281 8.882812 -11.765625 9.625 -11.796875 C 9.800781 -11.804688 9.929688 -11.757812 10.015625 -11.65625 C 10.097656 -11.5625 10.140625 -11.4375 10.140625 -11.28125 C 10.140625 -11.132812 10.097656 -11.007812 10.015625 -10.90625 C 9.929688 -10.8125 9.800781 -10.765625 9.625 -10.765625 C 8.875 -10.734375 8.128906 -10.707031 7.390625 -10.6875 C 6.648438 -10.664062 5.910156 -10.65625 5.171875 -10.65625 C 4.503906 -10.65625 3.84375 -10.660156 3.1875 -10.671875 C 2.53125 -10.691406 1.875 -10.71875 1.21875 -10.75 Z M 4.640625 -10.890625 C 4.640625 -10.972656 4.65625 -11.046875 4.6875 -11.109375 C 4.726562 -11.171875 4.773438 -11.222656 4.828125 -11.265625 C 4.878906 -11.316406 4.941406 -11.351562 5.015625 -11.375 C 5.085938 -11.394531 5.15625 -11.40625 5.21875 -11.40625 C 5.269531 -11.40625 5.328125 -11.394531 5.390625 -11.375 C 5.460938 -11.351562 5.523438 -11.316406 5.578125 -11.265625 C 5.628906 -11.222656 5.671875 -11.171875 5.703125 -11.109375 C 5.734375 -11.046875 5.75 -10.972656 5.75 -10.890625 C 5.738281 -9.054688 5.703125 -7.265625 5.640625 -5.515625 C 5.578125 -3.765625 5.476562 -2.007812 5.34375 -0.25 C 5.332031 -0.113281 5.300781 -0.0078125 5.25 0.0625 C 5.195312 0.144531 5.128906 0.207031 5.046875 0.25 C 4.972656 0.289062 4.894531 0.3125 4.8125 0.3125 C 4.71875 0.3125 4.628906 0.289062 4.546875 0.25 C 4.460938 0.207031 4.394531 0.144531 4.34375 0.0625 C 4.289062 -0.0195312 4.269531 -0.125 4.28125 -0.25 C 4.394531 -1.957031 4.484375 -3.695312 4.546875 -5.46875 C 4.609375 -7.25 4.640625 -9.054688 4.640625 -10.890625 Z M 4.640625 -10.890625 "/></g></g></g><g fill="#fffdfc" fill-opacity="1"><g transform="translate(196.72295, 304.160401)"><g><path d="M 1.21875 -10.75 C 1.0625 -10.75 0.9375 -10.796875 0.84375 -10.890625 C 0.75 -10.984375 0.703125 -11.109375 0.703125 -11.265625 C 0.703125 -11.421875 0.75 -11.546875 0.84375 -11.640625 C 0.9375 -11.734375 1.0625 -11.78125 1.21875 -11.78125 C 1.582031 -11.769531 1.992188 -11.753906 2.453125 -11.734375 C 2.910156 -11.722656 3.375 -11.710938 3.84375 -11.703125 C 4.3125 -11.703125 4.738281 -11.703125 5.125 -11.703125 C 5.875 -11.703125 6.625 -11.707031 7.375 -11.71875 C 8.132812 -11.738281 8.882812 -11.765625 9.625 -11.796875 C 9.800781 -11.804688 9.929688 -11.757812 10.015625 -11.65625 C 10.097656 -11.5625 10.140625 -11.4375 10.140625 -11.28125 C 10.140625 -11.132812 10.097656 -11.007812 10.015625 -10.90625 C 9.929688 -10.8125 9.800781 -10.765625 9.625 -10.765625 C 8.875 -10.734375 8.128906 -10.707031 7.390625 -10.6875 C 6.648438 -10.664062 5.910156 -10.65625 5.171875 -10.65625 C 4.503906 -10.65625 3.84375 -10.660156 3.1875 -10.671875 C 2.53125 -10.691406 1.875 -10.71875 1.21875 -10.75 Z M 4.640625 -10.890625 C 4.640625 -10.972656 4.65625 -11.046875 4.6875 -11.109375 C 4.726562 -11.171875 4.773438 -11.222656 4.828125 -11.265625 C 4.878906 -11.316406 4.941406 -11.351562 5.015625 -11.375 C 5.085938 -11.394531 5.15625 -11.40625 5.21875 -11.40625 C 5.269531 -11.40625 5.328125 -11.394531 5.390625 -11.375 C 5.460938 -11.351562 5.523438 -11.316406 5.578125 -11.265625 C 5.628906 -11.222656 5.671875 -11.171875 5.703125 -11.109375 C 5.734375 -11.046875 5.75 -10.972656 5.75 -10.890625 C 5.738281 -9.054688 5.703125 -7.265625 5.640625 -5.515625 C 5.578125 -3.765625 5.476562 -2.007812 5.34375 -0.25 C 5.332031 -0.113281 5.300781 -0.0078125 5.25 0.0625 C 5.195312 0.144531 5.128906 0.207031 5.046875 0.25 C 4.972656 0.289062 4.894531 0.3125 4.8125 0.3125 C 4.71875 0.3125 4.628906 0.289062 4.546875 0.25 C 4.460938 0.207031 4.394531 0.144531 4.34375 0.0625 C 4.289062 -0.0195312 4.269531 -0.125 4.28125 -0.25 C 4.394531 -1.957031 4.484375 -3.695312 4.546875 -5.46875 C 4.609375 -7.25 4.640625 -9.054688 4.640625 -10.890625 Z M 4.640625 -10.890625 "/></g></g></g><g fill="#fffdfc" fill-opacity="1"><g transform="translate(207.065199, 304.160401)"><g><path d="M 2.28125 0.234375 C 2.175781 0.234375 2.0625 0.222656 1.9375 0.203125 C 1.8125 0.191406 1.707031 0.144531 1.625 0.0625 C 1.539062 -0.0078125 1.5 -0.128906 1.5 -0.296875 C 1.59375 -1.484375 1.675781 -2.6875 1.75 -3.90625 C 1.832031 -5.125 1.90625 -6.332031 1.96875 -7.53125 C 2.03125 -8.726562 2.085938 -9.910156 2.140625 -11.078125 C 2.160156 -11.273438 2.210938 -11.425781 2.296875 -11.53125 C 2.390625 -11.644531 2.546875 -11.707031 2.765625 -11.71875 C 3.296875 -11.757812 3.835938 -11.789062 4.390625 -11.8125 C 4.953125 -11.84375 5.539062 -11.863281 6.15625 -11.875 C 6.78125 -11.894531 7.453125 -11.90625 8.171875 -11.90625 C 8.367188 -11.90625 8.507812 -11.859375 8.59375 -11.765625 C 8.6875 -11.679688 8.734375 -11.566406 8.734375 -11.421875 C 8.734375 -11.265625 8.6875 -11.132812 8.59375 -11.03125 C 8.507812 -10.9375 8.367188 -10.890625 8.171875 -10.890625 C 7.660156 -10.890625 7.179688 -10.882812 6.734375 -10.875 C 6.296875 -10.875 5.878906 -10.863281 5.484375 -10.84375 C 5.085938 -10.832031 4.703125 -10.816406 4.328125 -10.796875 C 3.953125 -10.785156 3.582031 -10.765625 3.21875 -10.734375 C 3.195312 -10.296875 3.171875 -9.832031 3.140625 -9.34375 C 3.117188 -8.863281 3.09375 -8.382812 3.0625 -7.90625 C 3.039062 -7.4375 3.015625 -6.976562 2.984375 -6.53125 C 3.453125 -6.59375 3.953125 -6.640625 4.484375 -6.671875 C 5.023438 -6.703125 5.550781 -6.722656 6.0625 -6.734375 C 6.570312 -6.742188 6.988281 -6.738281 7.3125 -6.71875 C 7.457031 -6.71875 7.578125 -6.671875 7.671875 -6.578125 C 7.765625 -6.492188 7.816406 -6.375 7.828125 -6.21875 C 7.828125 -6.070312 7.773438 -5.945312 7.671875 -5.84375 C 7.578125 -5.75 7.457031 -5.703125 7.3125 -5.703125 C 7.039062 -5.722656 6.660156 -5.726562 6.171875 -5.71875 C 5.691406 -5.71875 5.164062 -5.695312 4.59375 -5.65625 C 4.03125 -5.625 3.476562 -5.570312 2.9375 -5.5 C 2.894531 -4.738281 2.847656 -3.960938 2.796875 -3.171875 C 2.742188 -2.378906 2.6875 -1.597656 2.625 -0.828125 C 2.988281 -0.859375 3.394531 -0.890625 3.84375 -0.921875 C 4.300781 -0.953125 4.773438 -0.984375 5.265625 -1.015625 C 5.753906 -1.046875 6.222656 -1.070312 6.671875 -1.09375 C 7.128906 -1.113281 7.539062 -1.125 7.90625 -1.125 C 8.070312 -1.125 8.195312 -1.078125 8.28125 -0.984375 C 8.363281 -0.890625 8.40625 -0.769531 8.40625 -0.625 C 8.40625 -0.476562 8.363281 -0.351562 8.28125 -0.25 C 8.195312 -0.144531 8.070312 -0.09375 7.90625 -0.09375 C 7.695312 -0.09375 7.484375 -0.09375 7.265625 -0.09375 C 7.046875 -0.09375 6.835938 -0.0859375 6.640625 -0.078125 C 6.160156 -0.0664062 5.675781 -0.046875 5.1875 -0.015625 C 4.695312 0.015625 4.210938 0.0507812 3.734375 0.09375 C 3.253906 0.132812 2.769531 0.179688 2.28125 0.234375 Z M 2.28125 0.234375 "/></g></g></g><g fill="#fffdfc" fill-opacity="1"><g transform="translate(216.656677, 304.160401)"><g><path d="M 2.09375 -11.3125 C 2.113281 -11.488281 2.171875 -11.617188 2.265625 -11.703125 C 2.367188 -11.785156 2.488281 -11.828125 2.625 -11.828125 C 2.6875 -11.828125 2.75 -11.8125 2.8125 -11.78125 C 2.882812 -11.757812 2.945312 -11.726562 3 -11.6875 C 3.0625 -11.65625 3.109375 -11.609375 3.140625 -11.546875 C 3.179688 -11.484375 3.195312 -11.40625 3.1875 -11.3125 L 2.5 -0.3125 C 2.488281 -0.125 2.425781 0.0078125 2.3125 0.09375 C 2.195312 0.175781 2.070312 0.21875 1.9375 0.21875 C 1.800781 0.21875 1.675781 0.175781 1.5625 0.09375 C 1.445312 0.0078125 1.394531 -0.125 1.40625 -0.3125 Z M 2.984375 -10.78125 C 2.890625 -10.757812 2.8125 -10.757812 2.75 -10.78125 C 2.6875 -10.8125 2.625 -10.847656 2.5625 -10.890625 C 2.507812 -10.941406 2.46875 -11 2.4375 -11.0625 C 2.40625 -11.125 2.390625 -11.191406 2.390625 -11.265625 C 2.390625 -11.390625 2.460938 -11.503906 2.609375 -11.609375 C 2.753906 -11.722656 3 -11.796875 3.34375 -11.828125 C 3.6875 -11.859375 3.976562 -11.878906 4.21875 -11.890625 C 4.46875 -11.910156 4.703125 -11.921875 4.921875 -11.921875 C 5.984375 -11.921875 6.851562 -11.765625 7.53125 -11.453125 C 8.207031 -11.148438 8.707031 -10.75 9.03125 -10.25 C 9.363281 -9.757812 9.53125 -9.238281 9.53125 -8.6875 C 9.53125 -8.207031 9.410156 -7.742188 9.171875 -7.296875 C 8.929688 -6.859375 8.585938 -6.46875 8.140625 -6.125 C 7.691406 -5.78125 7.160156 -5.515625 6.546875 -5.328125 C 5.929688 -5.140625 5.25 -5.0625 4.5 -5.09375 C 5 -4.757812 5.472656 -4.429688 5.921875 -4.109375 C 6.378906 -3.785156 6.820312 -3.453125 7.25 -3.109375 C 7.6875 -2.765625 8.128906 -2.40625 8.578125 -2.03125 C 9.023438 -1.65625 9.488281 -1.253906 9.96875 -0.828125 C 10.03125 -0.765625 10.070312 -0.703125 10.09375 -0.640625 C 10.113281 -0.578125 10.125 -0.515625 10.125 -0.453125 C 10.125 -0.367188 10.101562 -0.28125 10.0625 -0.1875 C 10.019531 -0.101562 9.957031 -0.0351562 9.875 0.015625 C 9.789062 0.078125 9.695312 0.109375 9.59375 0.109375 C 9.53125 0.109375 9.460938 0.0859375 9.390625 0.046875 C 9.316406 0.015625 9.238281 -0.0351562 9.15625 -0.109375 C 8.664062 -0.535156 8.144531 -0.976562 7.59375 -1.4375 C 7.039062 -1.90625 6.472656 -2.363281 5.890625 -2.8125 C 5.304688 -3.269531 4.722656 -3.695312 4.140625 -4.09375 C 3.566406 -4.5 3.015625 -4.875 2.484375 -5.21875 L 2.703125 -6.109375 C 2.816406 -6.085938 3.023438 -6.054688 3.328125 -6.015625 C 3.640625 -5.984375 4.023438 -5.96875 4.484375 -5.96875 C 5.171875 -5.96875 5.757812 -6.046875 6.25 -6.203125 C 6.75 -6.367188 7.160156 -6.585938 7.484375 -6.859375 C 7.816406 -7.128906 8.0625 -7.425781 8.21875 -7.75 C 8.382812 -8.070312 8.46875 -8.390625 8.46875 -8.703125 C 8.46875 -9.140625 8.3125 -9.523438 8 -9.859375 C 7.6875 -10.191406 7.257812 -10.453125 6.71875 -10.640625 C 6.1875 -10.828125 5.566406 -10.921875 4.859375 -10.921875 C 4.617188 -10.921875 4.410156 -10.914062 4.234375 -10.90625 C 4.066406 -10.894531 3.890625 -10.878906 3.703125 -10.859375 C 3.515625 -10.847656 3.273438 -10.820312 2.984375 -10.78125 Z M 2.984375 -10.78125 "/></g></g></g><g fill="#fffdfc" fill-opacity="1"><g transform="translate(227.826302, 304.160401)"><g><path d="M 8.21875 -10.84375 C 8.28125 -10.789062 8.328125 -10.734375 8.359375 -10.671875 C 8.390625 -10.609375 8.40625 -10.539062 8.40625 -10.46875 C 8.40625 -10.375 8.378906 -10.285156 8.328125 -10.203125 C 8.273438 -10.128906 8.207031 -10.066406 8.125 -10.015625 C 8.050781 -9.972656 7.960938 -9.953125 7.859375 -9.953125 C 7.785156 -9.953125 7.703125 -9.976562 7.609375 -10.03125 C 7.515625 -10.09375 7.382812 -10.171875 7.21875 -10.265625 C 6.875 -10.460938 6.523438 -10.609375 6.171875 -10.703125 C 5.828125 -10.804688 5.421875 -10.859375 4.953125 -10.859375 C 4.390625 -10.859375 3.921875 -10.769531 3.546875 -10.59375 C 3.171875 -10.425781 2.890625 -10.207031 2.703125 -9.9375 C 2.515625 -9.664062 2.421875 -9.375 2.421875 -9.0625 C 2.421875 -8.71875 2.535156 -8.410156 2.765625 -8.140625 C 2.992188 -7.878906 3.3125 -7.628906 3.71875 -7.390625 C 4.125 -7.148438 4.59375 -6.90625 5.125 -6.65625 C 5.914062 -6.269531 6.550781 -5.890625 7.03125 -5.515625 C 7.507812 -5.140625 7.859375 -4.734375 8.078125 -4.296875 C 8.304688 -3.859375 8.421875 -3.363281 8.421875 -2.8125 C 8.421875 -2.363281 8.332031 -1.953125 8.15625 -1.578125 C 7.976562 -1.210938 7.726562 -0.890625 7.40625 -0.609375 C 7.082031 -0.328125 6.707031 -0.109375 6.28125 0.046875 C 5.851562 0.210938 5.378906 0.296875 4.859375 0.296875 C 4.484375 0.296875 4.078125 0.242188 3.640625 0.140625 C 3.210938 0.046875 2.8125 -0.0820312 2.4375 -0.25 C 2.0625 -0.414062 1.75 -0.59375 1.5 -0.78125 C 1.257812 -1 1.144531 -1.191406 1.15625 -1.359375 C 1.15625 -1.460938 1.171875 -1.550781 1.203125 -1.625 C 1.242188 -1.707031 1.300781 -1.769531 1.375 -1.8125 C 1.457031 -1.851562 1.539062 -1.875 1.625 -1.875 C 1.6875 -1.875 1.769531 -1.84375 1.875 -1.78125 C 1.988281 -1.726562 2.117188 -1.65625 2.265625 -1.5625 C 2.554688 -1.382812 2.914062 -1.203125 3.34375 -1.015625 C 3.78125 -0.828125 4.28125 -0.734375 4.84375 -0.734375 C 5.320312 -0.734375 5.742188 -0.820312 6.109375 -1 C 6.484375 -1.1875 6.773438 -1.429688 6.984375 -1.734375 C 7.203125 -2.046875 7.3125 -2.394531 7.3125 -2.78125 C 7.3125 -3.1875 7.210938 -3.554688 7.015625 -3.890625 C 6.816406 -4.234375 6.519531 -4.550781 6.125 -4.84375 C 5.738281 -5.132812 5.234375 -5.414062 4.609375 -5.6875 C 4.171875 -5.894531 3.753906 -6.101562 3.359375 -6.3125 C 2.972656 -6.519531 2.625 -6.753906 2.3125 -7.015625 C 2.007812 -7.273438 1.769531 -7.570312 1.59375 -7.90625 C 1.414062 -8.25 1.328125 -8.644531 1.328125 -9.09375 C 1.328125 -9.644531 1.484375 -10.125 1.796875 -10.53125 C 2.117188 -10.945312 2.554688 -11.269531 3.109375 -11.5 C 3.671875 -11.738281 4.320312 -11.859375 5.0625 -11.859375 C 5.6875 -11.859375 6.273438 -11.765625 6.828125 -11.578125 C 7.390625 -11.390625 7.851562 -11.144531 8.21875 -10.84375 Z M 8.21875 -10.84375 "/></g></g></g><g fill="#fffdfc" fill-opacity="1"><g transform="translate(237.433093, 304.160401)"><g><path d="M 1.6875 0.265625 C 1.488281 0.253906 1.316406 0.179688 1.171875 0.046875 C 1.023438 -0.078125 0.953125 -0.25 0.953125 -0.46875 C 0.953125 -0.59375 0.984375 -0.722656 1.046875 -0.859375 C 1.109375 -0.992188 1.195312 -1.109375 1.3125 -1.203125 C 1.4375 -1.296875 1.59375 -1.34375 1.78125 -1.34375 C 2.03125 -1.34375 2.203125 -1.257812 2.296875 -1.09375 C 2.398438 -0.9375 2.453125 -0.769531 2.453125 -0.59375 C 2.453125 -0.375 2.378906 -0.175781 2.234375 0 C 2.085938 0.175781 1.90625 0.265625 1.6875 0.265625 Z M 1.6875 0.265625 "/></g></g></g><g fill="#fffdfc" fill-opacity="1"><g transform="translate(241.156297, 304.160401)"><g><path d="M 1.6875 0.265625 C 1.488281 0.253906 1.316406 0.179688 1.171875 0.046875 C 1.023438 -0.078125 0.953125 -0.25 0.953125 -0.46875 C 0.953125 -0.59375 0.984375 -0.722656 1.046875 -0.859375 C 1.109375 -0.992188 1.195312 -1.109375 1.3125 -1.203125 C 1.4375 -1.296875 1.59375 -1.34375 1.78125 -1.34375 C 2.03125 -1.34375 2.203125 -1.257812 2.296875 -1.09375 C 2.398438 -0.9375 2.453125 -0.769531 2.453125 -0.59375 C 2.453125 -0.375 2.378906 -0.175781 2.234375 0 C 2.085938 0.175781 1.90625 0.265625 1.6875 0.265625 Z M 1.6875 0.265625 "/></g></g></g><g fill="#fffdfc" fill-opacity="1"><g transform="translate(244.879501, 304.160401)"><g><path d="M 1.6875 0.265625 C 1.488281 0.253906 1.316406 0.179688 1.171875 0.046875 C 1.023438 -0.078125 0.953125 -0.25 0.953125 -0.46875 C 0.953125 -0.59375 0.984375 -0.722656 1.046875 -0.859375 C 1.109375 -0.992188 1.195312 -1.109375 1.3125 -1.203125 C 1.4375 -1.296875 1.59375 -1.34375 1.78125 -1.34375 C 2.03125 -1.34375 2.203125 -1.257812 2.296875 -1.09375 C 2.398438 -0.9375 2.453125 -0.769531 2.453125 -0.59375 C 2.453125 -0.375 2.378906 -0.175781 2.234375 0 C 2.085938 0.175781 1.90625 0.265625 1.6875 0.265625 Z M 1.6875 0.265625 "/></g></g></g><g mask="url(#6fba8cd9e7)"><g transform="matrix(1, 0, 0, 1, 108, 78)"><g clip-path="url(#64716d2750)"><g clip-path="url(#dd08ce1ac2)"><g clip-path="url(#48ea0618e0)"><g clip-path="url(#7c497ee3d2)"><path fill="#ffffff" d="M 75.082031 163.878906 C 80.003906 160.089844 86.671875 159.871094 92.84375 159.160156 C 99.015625 158.453125 105.863281 156.570312 108.839844 151.117188 C 106.785156 152.921875 104.210938 153.839844 101.488281 154.238281 C 108.980469 150.753906 113.707031 142.871094 117.761719 135.488281 C 120.742188 130.058594 123.71875 124.628906 126.699219 119.199219 C 125.109375 120.460938 123.367188 121.5 121.472656 122.222656 C 121.042969 122.386719 124.105469 119.539062 128.023438 114.878906 C 129.695312 112.820312 131.214844 110.628906 132.367188 108.875 C 133.761719 106.332031 135.15625 103.785156 136.554688 101.242188 C 132.757812 104.742188 128.300781 107.519531 123.339844 108.207031 C 122.734375 108.289062 129.347656 104.566406 136.511719 98.378906 L 131.929688 100.308594 C 132.46875 100.148438 133.359375 99.527344 134.421875 98.664062 C 135.480469 97.761719 137.867188 95.101562 138.417969 94.476562 C 139.503906 93.089844 140.511719 91.65625 141.152344 90.699219 C 138.960938 92.21875 137.179688 93.371094 137.179688 93.371094 C 138.753906 92.371094 140.378906 91 141.980469 89.464844 C 142.4375 88.96875 142.984375 88.265625 143.542969 87.496094 C 140.722656 89.472656 137.707031 91.296875 135.445312 92.609375 C 135.09375 92.855469 134.753906 93.085938 134.417969 93.300781 L 134.417969 93.199219 C 134.746094 93.011719 135.070312 92.828125 135.445312 92.609375 C 139.171875 89.980469 143.75 85.527344 147.046875 82.117188 C 147.148438 81.9375 147.25 81.753906 147.347656 81.570312 C 143.339844 84.976562 138.640625 87.789062 138.640625 87.789062 C 143.898438 84.503906 148.542969 78.464844 151.121094 74.699219 C 152.582031 72.035156 154.042969 69.371094 155.507812 66.707031 C 157.054688 63.886719 158.550781 60.207031 156.535156 57.699219 C 154.222656 54.8125 149.632812 56.21875 146.320312 57.863281 C 134.6875 63.632812 122.949219 69.464844 112.847656 77.617188 C 102.742188 85.769531 94.261719 96.546875 91.214844 109.167969 C 90.453125 103.84375 91.523438 98.277344 94.203125 93.613281 C 75.605469 101.8125 64.621094 124.234375 69.378906 143.96875 L 68.085938 146.398438 C 65.683594 143.351562 64.996094 138.847656 65.195312 134.8125 C 65.453125 129.566406 66.667969 124.160156 65.050781 119.160156 C 64.925781 125.878906 62.207031 132.257812 61.101562 138.886719 C 60.21875 144.199219 60.75 150.242188 63.8125 154.4375 L 63.78125 154.492188 L 63.847656 155.789062 C 57.160156 151.753906 52.46875 144.460938 51.789062 136.660156 C 49.972656 146.410156 55.214844 156.988281 63.925781 161.644531 C 90.976562 121.382812 127.769531 86.019531 127.769531 86.019531 C 98.441406 115.390625 74.03125 151.898438 64.894531 166.234375 C 65.976562 168.621094 68.039062 170.347656 70.867188 171.269531 C 74.96875 172.597656 79.410156 172.171875 83.683594 171.601562 C 87.957031 171.03125 92.3125 170.332031 96.546875 171.148438 C 91.320312 165.210938 82.839844 162.339844 75.082031 163.878906 " fill-opacity="1" fill-rule="nonzero"/></g></g></g><g clip-path="url(#e358945178)"><g clip-path="url(#f5747ccea5)"><g clip-path="url(#232a6b118b)"><path fill="#ffffff" d="M 125.484375 84.292969 C 125.484375 84.292969 71.546875 136.136719 46.269531 185.746094 L 58.746094 170.699219 C 58.746094 170.699219 88.128906 121.707031 125.484375 84.292969 " fill-opacity="1" fill-rule="nonzero"/></g></g></g><g clip-path="url(#961acd514c)"><g clip-path="url(#38cb7007e7)"><g clip-path="url(#57f17b7b39)"><path fill="#ffffff" d="M 75.363281 184.097656 C 78.789062 184.269531 82.3125 184.640625 85.691406 184.984375 C 92.890625 185.765625 98.574219 188.664062 105.890625 189.453125 C 110.488281 189.914062 115.050781 190.589844 119.777344 190.835938 C 120.957031 190.910156 122.136719 190.867188 123.324219 190.882812 C 124.511719 190.886719 125.707031 190.890625 126.894531 190.757812 C 128.089844 190.65625 129.285156 190.542969 130.488281 190.40625 C 131.679688 190.207031 132.871094 189.964844 134.066406 189.707031 L 135.710938 189.34375 L 137.332031 188.875 L 140.570312 187.929688 L 145.328125 186.195312 L 146.878906 185.523438 L 149.972656 184.167969 L 152.984375 182.632812 C 155.015625 181.664062 156.902344 180.410156 158.855469 179.300781 C 162.617188 176.839844 166.328125 174.292969 169.703125 171.328125 C 171.464844 169.941406 173.03125 168.328125 174.691406 166.832031 C 175.503906 166.058594 176.25 165.226562 177.039062 164.429688 C 177.8125 163.628906 178.617188 162.847656 179.328125 161.980469 C 184.933594 155.6875 189.378906 148.550781 192.496094 141.003906 C 195.605469 133.441406 197.535156 125.527344 198.394531 117.523438 C 199.277344 109.519531 198.929688 101.421875 197.613281 93.417969 C 196.269531 85.425781 193.890625 77.453125 190.242188 69.894531 C 188.199219 65.453125 185.53125 61.144531 182.558594 56.921875 C 179.523438 52.742188 176.011719 48.796875 172.199219 45.109375 C 168.351562 41.460938 164.125 38.175781 159.710938 35.246094 C 155.265625 32.355469 150.574219 29.933594 145.835938 27.898438 C 138.914062 24.996094 127.867188 21.402344 116.703125 20.753906 C 105.574219 19.773438 94.722656 21.59375 88.679688 23.71875 C 96.980469 21.640625 105.867188 20.796875 114.628906 21.460938 C 123.386719 22.109375 132 24.15625 139.792969 27.238281 C 122.355469 21.21875 102.835938 20.785156 84.96875 25.738281 C 76.050781 28.242188 67.441406 31.890625 59.757812 36.890625 C 52.066406 41.847656 45.144531 47.898438 39.59375 54.832031 C 50.140625 41.917969 64.851562 32.429688 80.75 27.375 C 96.6875 22.347656 113.972656 21.757812 129.921875 25.851562 C 145.839844 30.054688 160.160156 38.738281 170.824219 50.207031 C 176.175781 55.921875 180.671875 62.277344 184.101562 69.015625 C 187.496094 75.777344 189.800781 82.898438 190.988281 90.027344 C 190.121094 85.898438 188.738281 81.8125 187.136719 77.734375 C 186.25 75.734375 185.414062 73.679688 184.339844 71.71875 C 183.367188 69.703125 182.183594 67.789062 181.023438 65.832031 C 176.179688 58.15625 169.96875 50.953125 162.515625 44.925781 C 160.699219 43.355469 158.699219 42.007812 156.753906 40.5625 C 154.71875 39.261719 152.71875 37.863281 150.566406 36.707031 C 148.472656 35.445312 146.253906 34.398438 144.050781 33.296875 C 142.929688 32.785156 141.789062 32.320312 140.65625 31.832031 C 139.527344 31.320312 138.367188 30.898438 137.199219 30.488281 C 127.902344 27.023438 117.84375 25.40625 107.8125 25.367188 C 87.714844 25.355469 67.710938 32.441406 52.609375 44.585938 C 45.101562 50.703125 38.773438 57.9375 34.074219 65.804688 C 33.488281 66.789062 32.890625 67.757812 32.332031 68.746094 C 31.808594 69.753906 31.289062 70.757812 30.773438 71.757812 L 30.007812 73.253906 L 29.328125 74.785156 C 28.882812 75.804688 28.441406 76.820312 28 77.832031 C 27.21875 79.894531 26.4375 81.933594 25.796875 83.996094 C 25.207031 86.074219 24.535156 88.097656 24.132812 90.171875 C 22.902344 95.136719 22.375 100.804688 22.371094 105.03125 C 22.902344 88.589844 29.273438 70.632812 41.46875 56.097656 C 53.632812 41.558594 71.753906 31.160156 91.207031 27.714844 C 96.0625 26.851562 100.984375 26.277344 105.914062 26.253906 C 108.375 26.144531 110.835938 26.328125 113.289062 26.417969 C 114.515625 26.492188 115.734375 26.65625 116.957031 26.773438 C 118.175781 26.886719 119.390625 27.023438 120.597656 27.253906 L 124.210938 27.863281 L 127.773438 28.695312 L 129.546875 29.121094 L 131.292969 29.644531 C 132.453125 30.011719 133.625 30.308594 134.761719 30.730469 C 139.34375 32.292969 143.726562 34.304688 147.933594 36.53125 C 164.703125 45.660156 177.59375 60.042969 184.601562 75.585938 C 187.796875 82.734375 189.96875 90.308594 190.882812 98.050781 C 191.789062 105.785156 191.671875 113.636719 190.398438 121.292969 C 189.082031 128.933594 186.75 136.394531 183.304688 143.296875 C 179.804688 150.167969 175.296875 156.476562 169.796875 161.945312 C 163.660156 167.703125 156.585938 172.5625 148.871094 175.957031 C 146.929688 176.910156 144.871094 177.578125 142.863281 178.371094 L 139.773438 179.328125 L 138.226562 179.800781 L 136.652344 180.171875 C 132.480469 181.28125 128.195312 181.808594 123.921875 182.097656 L 120.710938 182.207031 C 119.640625 182.226562 118.574219 182.140625 117.503906 182.117188 L 115.902344 182.0625 C 115.367188 182.027344 114.824219 181.957031 114.285156 181.910156 C 113.203125 181.785156 112.132812 181.726562 111.039062 181.5625 C 106.6875 181 102.230469 180.09375 97.679688 179.226562 C 93.65625 178.441406 88.679688 177.4375 83.265625 176.832031 C 77.851562 176.152344 71.871094 176.152344 66.382812 177.121094 C 63.628906 177.613281 60.984375 178.347656 58.582031 179.28125 C 56.171875 180.195312 54.03125 181.417969 52.234375 182.640625 C 48.636719 185.175781 46.640625 188.027344 46.113281 189.785156 C 48.097656 187.828125 50.398438 185.988281 52.910156 184.539062 C 55.414062 183.085938 58.101562 182.023438 60.675781 181.4375 C 58.832031 182.261719 56.8125 183.378906 54.835938 184.597656 C 56.8125 183.597656 59.148438 182.890625 61.074219 182.183594 C 60.273438 182.472656 59.488281 182.839844 58.847656 183.191406 C 58.195312 183.523438 57.699219 183.878906 57.46875 184.167969 C 59.890625 183.269531 63.351562 181.898438 65.386719 181.382812 C 65.96875 181.207031 67.621094 180.730469 69.367188 180.386719 C 71.105469 180.035156 72.925781 179.835938 73.734375 179.898438 C 71.640625 180.257812 69.300781 180.675781 67.121094 181.308594 C 64.945312 181.945312 62.925781 182.6875 61.460938 183.535156 C 62.132812 183.359375 62.800781 183.183594 63.476562 183.054688 C 64.148438 182.910156 64.816406 182.769531 65.492188 182.714844 C 64.683594 182.984375 63.519531 183.371094 62.445312 183.726562 C 61.394531 184.140625 60.453125 184.519531 60.132812 184.871094 C 63.316406 183.808594 66.269531 183.050781 69.816406 182.796875 C 72.691406 182.601562 75.285156 182.679688 78.0625 182.675781 C 74.734375 182.722656 70.3125 183.097656 68.175781 183.960938 C 69.664062 183.917969 71.226562 183.753906 72.765625 183.65625 C 72.582031 183.71875 72.472656 183.785156 72.433594 183.855469 C 73.117188 183.820312 74.015625 183.902344 74.726562 183.898438 C 74.746094 183.992188 74.898438 184.089844 74.761719 184.1875 C 74.78125 184.117188 74.789062 184.050781 74.804688 183.980469 L 75.363281 184.097656 " fill-opacity="1" fill-rule="nonzero"/></g></g></g></g></g></g><g fill="#ffffff" fill-opacity="1"><g transform="translate(67.148814, 218.755791)"><g><path d="M 99.828125 -15.703125 C 100.035156 -15.753906 100.601562 -15.882812 101.53125 -16.09375 C 102.925781 -16.332031 104.601562 -16.625 106.5625 -16.96875 C 108.53125 -17.3125 110.265625 -17.546875 111.765625 -17.671875 C 113.265625 -17.796875 114.015625 -17.679688 114.015625 -17.328125 C 113.816406 -17.023438 112.882812 -16.625 111.21875 -16.125 C 109.5625 -15.632812 107.609375 -15.144531 105.359375 -14.65625 C 103.109375 -14.175781 101.023438 -13.738281 99.109375 -13.34375 C 97.203125 -12.957031 95.921875 -12.703125 95.265625 -12.578125 C 93.910156 -12.328125 92.890625 -11.628906 92.203125 -10.484375 C 86.296875 -2.210938 79.46875 5.203125 71.71875 11.765625 C 66.039062 16.679688 59.921875 20.984375 53.359375 24.671875 C 50.804688 26.140625 48.195312 27.425781 45.53125 28.53125 C 42.875 29.644531 40.113281 30.53125 37.25 31.1875 C 34.539062 31.757812 31.816406 31.925781 29.078125 31.6875 C 25.835938 31.351562 23.570312 30.148438 22.28125 28.078125 C 20.988281 26.015625 20.851562 23.425781 21.875 20.3125 C 22.625 18.375 23.664062 16.648438 25 15.140625 C 27.101562 12.679688 29.460938 10.515625 32.078125 8.640625 C 35.648438 6.046875 39.382812 3.722656 43.28125 1.671875 C 43.59375 1.503906 43.914062 1.347656 44.25 1.203125 C 44.664062 0.992188 45.078125 0.757812 45.484375 0.5 C 46.054688 0.21875 46.34375 -0.242188 46.34375 -0.890625 C 46.382812 -1.304688 46.40625 -1.734375 46.40625 -2.171875 C 46.40625 -2.785156 46.40625 -3.429688 46.40625 -4.109375 C 46.40625 -12.003906 46.40625 -19.929688 46.40625 -27.890625 C 46.40625 -38.609375 46.40625 -49.363281 46.40625 -60.15625 C 46.40625 -60.226562 46.40625 -60.328125 46.40625 -60.453125 C 46.40625 -61.410156 46.425781 -62.375 46.46875 -63.34375 C 46.632812 -64.320312 47.332031 -64.832031 48.5625 -64.875 C 49.75 -64.832031 50.398438 -64.300781 50.515625 -63.28125 C 50.609375 -62.425781 50.632812 -61.550781 50.59375 -60.65625 C 50.59375 -60.445312 50.59375 -60.257812 50.59375 -60.09375 C 50.632812 -51.53125 50.632812 -42.960938 50.59375 -34.390625 C 50.59375 -25.003906 50.613281 -15.597656 50.65625 -6.171875 C 50.65625 -5.816406 50.632812 -5.472656 50.59375 -5.140625 C 50.5 -3.535156 50.640625 -2.640625 51.015625 -2.453125 C 51.390625 -2.265625 52.429688 -2.566406 54.140625 -3.359375 C 54.234375 -3.390625 54.335938 -3.4375 54.453125 -3.5 C 64.660156 -7.800781 75.191406 -11.03125 86.046875 -13.1875 C 88.503906 -13.59375 90.347656 -14.890625 91.578125 -17.078125 C 94.484375 -22.097656 96.941406 -27.476562 98.953125 -33.21875 C 100.972656 -38.957031 102.347656 -44.65625 103.078125 -50.3125 C 103.816406 -55.976562 103.734375 -61.226562 102.828125 -66.0625 C 101.921875 -70.894531 100.023438 -74.925781 97.140625 -78.15625 C 94.253906 -81.382812 90.1875 -83.429688 84.9375 -84.296875 C 79.695312 -85.171875 73.101562 -84.460938 65.15625 -82.171875 C 61.132812 -81.085938 56.675781 -79.457031 51.78125 -77.28125 C 46.894531 -75.113281 41.925781 -72.523438 36.875 -69.515625 C 31.832031 -66.515625 27.070312 -63.238281 22.59375 -59.6875 C 18.113281 -56.144531 14.257812 -52.46875 11.03125 -48.65625 C 7.8125 -44.84375 5.566406 -41.03125 4.296875 -37.21875 C 3.929688 -36.039062 3.132812 -35.472656 1.90625 -35.515625 C 1.25 -35.515625 0.765625 -35.707031 0.453125 -36.09375 C 0.148438 -36.488281 0.0664062 -36.992188 0.203125 -37.609375 C 0.640625 -39.078125 1.269531 -40.460938 2.09375 -41.765625 C 4.050781 -44.929688 6.304688 -47.863281 8.859375 -50.5625 C 15.378906 -57.644531 23.285156 -64.140625 32.578125 -70.046875 C 41.867188 -75.953125 51.109375 -80.441406 60.296875 -83.515625 C 68.785156 -86.210938 76.085938 -87.394531 82.203125 -87.0625 C 88.328125 -86.738281 93.347656 -85.191406 97.265625 -82.421875 C 101.191406 -79.660156 104.0625 -75.972656 105.875 -71.359375 C 107.6875 -66.753906 108.53125 -61.53125 108.40625 -55.6875 C 108.289062 -49.851562 107.257812 -43.707031 105.3125 -37.25 C 103.363281 -30.800781 100.566406 -24.335938 96.921875 -17.859375 C 96.160156 -16.515625 95.929688 -15.726562 96.234375 -15.5 C 96.546875 -15.28125 97.226562 -15.289062 98.28125 -15.53125 C 98.726562 -15.601562 99.242188 -15.660156 99.828125 -15.703125 Z M 84.875 -7.40625 C 85.007812 -7.570312 85.128906 -7.71875 85.234375 -7.84375 C 85.847656 -8.457031 86.257812 -9.210938 86.46875 -10.109375 C 86.15625 -10.359375 85.832031 -10.472656 85.5 -10.453125 C 85.175781 -10.429688 84.847656 -10.382812 84.515625 -10.3125 C 84.378906 -10.269531 84.257812 -10.222656 84.15625 -10.171875 C 79.03125 -8.867188 73.957031 -7.40625 68.9375 -5.78125 C 63.914062 -4.164062 58.96875 -2.273438 54.09375 -0.109375 C 53.757812 0.0546875 53.453125 0.203125 53.171875 0.328125 C 52.347656 0.648438 51.75 0.9375 51.375 1.1875 C 51.007812 1.4375 50.785156 1.753906 50.703125 2.140625 C 50.628906 2.535156 50.613281 3.117188 50.65625 3.890625 C 50.65625 4.296875 50.65625 4.785156 50.65625 5.359375 C 50.613281 6.222656 50.613281 7.0625 50.65625 7.875 C 50.65625 8.695312 50.632812 9.546875 50.59375 10.421875 C 50.59375 11.242188 50.546875 12.0625 50.453125 12.875 C 50.253906 13.976562 49.585938 14.507812 48.453125 14.46875 C 47.222656 14.375 46.578125 13.675781 46.515625 12.375 C 46.441406 10.9375 46.40625 9.519531 46.40625 8.125 C 46.40625 7.144531 46.40625 6.1875 46.40625 5.25 C 46.332031 4.257812 45.859375 3.972656 44.984375 4.390625 C 42.242188 5.859375 39.609375 7.472656 37.078125 9.234375 C 34.554688 10.992188 32.21875 12.984375 30.0625 15.203125 C 28.695312 16.597656 27.585938 18.148438 26.734375 19.859375 C 26.046875 21.253906 25.675781 22.738281 25.625 24.3125 C 25.675781 26.9375 26.953125 28.570312 29.453125 29.21875 C 30.992188 29.59375 32.53125 29.613281 34.0625 29.28125 C 37 28.695312 39.84375 27.84375 42.59375 26.71875 C 45.34375 25.59375 48.007812 24.273438 50.59375 22.765625 C 57.300781 18.910156 63.492188 14.441406 69.171875 9.359375 C 74.859375 4.273438 80.09375 -1.3125 84.875 -7.40625 Z M 84.875 -7.40625 "/></g></g></g><g fill="#ffffff" fill-opacity="1"><g transform="translate(176.190404, 218.755791)"><g><path d="M 14.5 -11.34375 C 13.925781 -10.15625 12.941406 -8.832031 11.546875 -7.375 C 10.160156 -5.925781 8.585938 -5.003906 6.828125 -4.609375 C 5.066406 -4.210938 3.382812 -4.816406 1.78125 -6.421875 C 1.164062 -7.128906 0.710938 -7.941406 0.421875 -8.859375 C 0.140625 -9.785156 0.0351562 -10.695312 0.109375 -11.59375 C 0.109375 -11.832031 0.109375 -12.140625 0.109375 -12.515625 C 0.109375 -13.460938 0.148438 -14.5625 0.234375 -15.8125 C 0.316406 -17.0625 0.503906 -18.1875 0.796875 -19.1875 C 1.085938 -20.195312 1.539062 -20.804688 2.15625 -21.015625 C 3.925781 -21.460938 4.882812 -20.847656 5.03125 -19.171875 C 5.03125 -18.628906 5.007812 -18.085938 4.96875 -17.546875 C 4.9375 -17.265625 4.921875 -17.003906 4.921875 -16.765625 C 4.878906 -15.984375 4.84375 -15.203125 4.8125 -14.421875 C 4.8125 -13.804688 4.78125 -13.191406 4.71875 -12.578125 C 4.6875 -9.867188 5.289062 -8.257812 6.53125 -7.75 C 7.78125 -7.238281 9.207031 -7.785156 10.8125 -9.390625 C 12.414062 -10.992188 13.460938 -12.320312 13.953125 -13.375 C 14.453125 -14.4375 14.8125 -14.660156 15.03125 -14.046875 C 15.25 -13.429688 15.070312 -12.53125 14.5 -11.34375 Z M 4.671875 -26.765625 C 4.421875 -26.554688 4.125 -26.425781 3.78125 -26.375 C 3.4375 -26.320312 3.132812 -26.347656 2.875 -26.453125 C 2.675781 -26.617188 2.546875 -26.835938 2.484375 -27.109375 C 2.429688 -27.378906 2.40625 -27.703125 2.40625 -28.078125 C 2.40625 -28.148438 2.421875 -28.222656 2.453125 -28.296875 C 2.492188 -28.640625 2.578125 -28.976562 2.703125 -29.3125 C 3.078125 -30.207031 3.851562 -30.613281 5.03125 -30.53125 C 5.4375 -30.476562 5.753906 -30.3125 5.984375 -30.03125 C 6.222656 -29.75 6.273438 -29.425781 6.140625 -29.0625 C 5.867188 -28.144531 5.378906 -27.378906 4.671875 -26.765625 Z M 4.671875 -26.765625 "/></g></g></g><g fill="#ffffff" fill-opacity="1"><g transform="translate(189.907913, 218.755791)"><g><path d="M 30.375 -14.109375 C 30.738281 -14.203125 31.050781 -14.234375 31.3125 -14.203125 C 31.570312 -14.179688 31.71875 -14.085938 31.75 -13.921875 C 31.78125 -13.765625 31.546875 -13.519531 31.046875 -13.1875 C 30.835938 -13.070312 30.59375 -12.914062 30.3125 -12.71875 C 29.320312 -12.007812 28.175781 -11.222656 26.875 -10.359375 C 25.476562 -9.410156 24.207031 -8.539062 23.0625 -7.75 C 21.914062 -6.957031 21.15625 -6.359375 20.78125 -5.953125 C 20.375 -5.367188 20.117188 -4.738281 20.015625 -4.0625 C 19.910156 -3.382812 19.84375 -2.65625 19.8125 -1.875 C 19.75 -1.257812 19.679688 -0.644531 19.609375 -0.03125 C 18.546875 6.5625 16.753906 12.191406 14.234375 16.859375 C 11.710938 21.523438 8.875 25.238281 5.71875 28 C 2.5625 30.769531 -0.519531 32.578125 -3.53125 33.421875 C -6.539062 34.273438 -9.078125 34.164062 -11.140625 33.09375 C -13.210938 32.019531 -14.4375 29.992188 -14.8125 27.015625 C -15.007812 24.597656 -14.507812 22.125 -13.3125 19.59375 C -12.125 17.070312 -10.539062 14.65625 -8.5625 12.34375 C -6.582031 10.039062 -4.484375 7.921875 -2.265625 5.984375 C -0.046875 4.054688 2.003906 2.460938 3.890625 1.203125 C 4.410156 0.828125 4.957031 0.453125 5.53125 0.078125 C 8.195312 -1.765625 10.90625 -3.539062 13.65625 -5.25 C 15.40625 -6.238281 16.226562 -7.675781 16.125 -9.5625 C 16.125 -9.757812 16.125 -10.046875 16.125 -10.421875 C 16.0625 -10.960938 16.03125 -11.539062 16.03125 -12.15625 C 14.96875 -10.476562 13.472656 -8.957031 11.546875 -7.59375 C 9.617188 -6.238281 7.644531 -5.265625 5.625 -4.671875 C 3.601562 -4.085938 1.875 -4.117188 0.4375 -4.765625 C -0.988281 -5.421875 -1.726562 -6.941406 -1.78125 -9.328125 C -1.726562 -10.554688 -1.375 -11.6875 -0.71875 -12.71875 C 0.820312 -15.445312 2.972656 -17.597656 5.734375 -19.171875 C 6.753906 -19.722656 7.988281 -20.125 9.4375 -20.375 C 10.894531 -20.632812 12.296875 -20.617188 13.640625 -20.328125 C 14.992188 -20.035156 16.082031 -19.378906 16.90625 -18.359375 C 17.101562 -18.691406 17.398438 -18.910156 17.796875 -19.015625 C 18.191406 -19.117188 18.554688 -19.171875 18.890625 -19.171875 C 18.960938 -19.171875 19.015625 -19.171875 19.046875 -19.171875 C 20.578125 -19.316406 21.296875 -18.617188 21.203125 -17.078125 C 21.171875 -15.953125 21.132812 -14.84375 21.09375 -13.75 C 21.050781 -12.925781 21.003906 -12.125 20.953125 -11.34375 C 21.003906 -10.414062 21.519531 -10.113281 22.5 -10.4375 C 23.476562 -10.757812 24.664062 -11.3125 26.0625 -12.09375 C 27.664062 -13.03125 29.101562 -13.703125 30.375 -14.109375 Z M 12.4375 -12.578125 C 14.144531 -14.304688 15.082031 -15.632812 15.25 -16.5625 C 14.84375 -17.3125 14.207031 -17.765625 13.34375 -17.921875 C 12.476562 -18.078125 11.597656 -18.066406 10.703125 -17.890625 C 9.804688 -17.710938 9.050781 -17.441406 8.4375 -17.078125 C 6.738281 -16.015625 5.492188 -14.722656 4.703125 -13.203125 C 3.910156 -11.679688 3.617188 -10.382812 3.828125 -9.3125 C 4.035156 -8.25 4.832031 -7.882812 6.21875 -8.21875 C 7.601562 -8.550781 9.675781 -10.003906 12.4375 -12.578125 Z M 14.75 -0.328125 C 14.75 -0.390625 14.769531 -0.4375 14.8125 -0.46875 C 14.863281 -0.71875 14.90625 -1.023438 14.9375 -1.390625 C 14.976562 -1.765625 14.96875 -2.070312 14.90625 -2.3125 C 14.84375 -2.5625 14.6875 -2.601562 14.4375 -2.4375 C 12.726562 -1.238281 10.929688 0.078125 9.046875 1.515625 C 7.929688 2.328125 6.878906 3.078125 5.890625 3.765625 C 4.515625 4.796875 2.90625 6.128906 1.0625 7.765625 C -0.78125 9.398438 -2.585938 11.234375 -4.359375 13.265625 C -6.128906 15.296875 -7.585938 17.378906 -8.734375 19.515625 C -9.878906 21.648438 -10.453125 23.691406 -10.453125 25.640625 C -10.316406 28.441406 -9.53125 30.125 -8.09375 30.6875 C -6.664062 31.257812 -4.863281 30.910156 -2.6875 29.640625 C -0.519531 28.378906 1.726562 26.332031 4.0625 23.5 C 6.40625 20.664062 8.539062 17.222656 10.46875 13.171875 C 12.394531 9.117188 13.820312 4.617188 14.75 -0.328125 Z M 14.75 -0.328125 "/></g></g></g><g fill="#ffffff" fill-opacity="1"><g transform="translate(219.494144, 218.755791)"><g><path d="M 14.5 -11.34375 C 13.925781 -10.15625 12.941406 -8.832031 11.546875 -7.375 C 10.160156 -5.925781 8.585938 -5.003906 6.828125 -4.609375 C 5.066406 -4.210938 3.382812 -4.816406 1.78125 -6.421875 C 1.164062 -7.128906 0.710938 -7.941406 0.421875 -8.859375 C 0.140625 -9.785156 0.0351562 -10.695312 0.109375 -11.59375 C 0.109375 -11.832031 0.109375 -12.140625 0.109375 -12.515625 C 0.109375 -13.460938 0.148438 -14.5625 0.234375 -15.8125 C 0.316406 -17.0625 0.503906 -18.1875 0.796875 -19.1875 C 1.085938 -20.195312 1.539062 -20.804688 2.15625 -21.015625 C 3.925781 -21.460938 4.882812 -20.847656 5.03125 -19.171875 C 5.03125 -18.628906 5.007812 -18.085938 4.96875 -17.546875 C 4.9375 -17.265625 4.921875 -17.003906 4.921875 -16.765625 C 4.878906 -15.984375 4.84375 -15.203125 4.8125 -14.421875 C 4.8125 -13.804688 4.78125 -13.191406 4.71875 -12.578125 C 4.6875 -9.867188 5.289062 -8.257812 6.53125 -7.75 C 7.78125 -7.238281 9.207031 -7.785156 10.8125 -9.390625 C 12.414062 -10.992188 13.460938 -12.320312 13.953125 -13.375 C 14.453125 -14.4375 14.8125 -14.660156 15.03125 -14.046875 C 15.25 -13.429688 15.070312 -12.53125 14.5 -11.34375 Z M 4.671875 -26.765625 C 4.421875 -26.554688 4.125 -26.425781 3.78125 -26.375 C 3.4375 -26.320312 3.132812 -26.347656 2.875 -26.453125 C 2.675781 -26.617188 2.546875 -26.835938 2.484375 -27.109375 C 2.429688 -27.378906 2.40625 -27.703125 2.40625 -28.078125 C 2.40625 -28.148438 2.421875 -28.222656 2.453125 -28.296875 C 2.492188 -28.640625 2.578125 -28.976562 2.703125 -29.3125 C 3.078125 -30.207031 3.851562 -30.613281 5.03125 -30.53125 C 5.4375 -30.476562 5.753906 -30.3125 5.984375 -30.03125 C 6.222656 -29.75 6.273438 -29.425781 6.140625 -29.0625 C 5.867188 -28.144531 5.378906 -27.378906 4.671875 -26.765625 Z M 4.671875 -26.765625 "/></g></g></g><g fill="#ffffff" fill-opacity="1"><g transform="translate(233.211654, 218.755791)"><g><path d="M 0 -31.53125 L 0 -35.59375 L 39.65625 -35.59375 L 39.65625 -31.53125 L 33.703125 -31.53125 L 33.703125 0 L 29.0625 0 L 29.0625 -20.3125 C 28.832031 -20.351562 28.566406 -20.375 28.265625 -20.375 C 27.347656 -20.375 26.410156 -20.144531 25.453125 -19.6875 C 24.503906 -19.226562 23.59375 -18.382812 22.71875 -17.15625 C 21.84375 -15.9375 21.0625 -14.1875 20.375 -11.90625 L 15.96875 -13.28125 C 16.425781 -15.03125 17.035156 -16.570312 17.796875 -17.90625 C 16.878906 -18.59375 15.960938 -19.144531 15.046875 -19.5625 C 14.128906 -19.988281 13.097656 -20.203125 11.953125 -20.203125 C 10.390625 -20.203125 9.207031 -19.757812 8.40625 -18.875 C 7.601562 -18 7.203125 -16.875 7.203125 -15.5 C 7.203125 -14.050781 7.613281 -12.671875 8.4375 -11.359375 C 9.257812 -10.046875 10.441406 -8.660156 11.984375 -7.203125 C 13.535156 -5.753906 15.4375 -4.113281 17.6875 -2.28125 L 14.59375 0.6875 C 12.34375 -1.21875 10.3125 -3.035156 8.5 -4.765625 C 6.6875 -6.503906 5.242188 -8.257812 4.171875 -10.03125 C 3.109375 -11.8125 2.578125 -13.710938 2.578125 -15.734375 C 2.578125 -17.753906 3.039062 -19.398438 3.96875 -20.671875 C 4.90625 -21.953125 6.078125 -22.890625 7.484375 -23.484375 C 8.898438 -24.078125 10.296875 -24.375 11.671875 -24.375 C 13.347656 -24.375 14.882812 -24.097656 16.28125 -23.546875 C 17.675781 -22.992188 19 -22.203125 20.25 -21.171875 C 22.46875 -23.304688 25.234375 -24.375 28.546875 -24.375 C 28.742188 -24.375 28.914062 -24.375 29.0625 -24.375 L 29.0625 -31.53125 Z M 0 -31.53125 "/></g></g></g><g fill="#ffffff" fill-opacity="1"><g transform="translate(272.004606, 218.755791)"><g><path d="M -9.671875 -35.1875 C -10.472656 -38.195312 -11.265625 -40.570312 -12.046875 -42.3125 C -12.828125 -44.050781 -13.691406 -45.28125 -14.640625 -46 C -15.597656 -46.726562 -16.726562 -47.09375 -18.03125 -47.09375 C -18.90625 -47.09375 -19.65625 -47.003906 -20.28125 -46.828125 C -20.914062 -46.660156 -21.5 -46.484375 -22.03125 -46.296875 L -23.40625 -50.46875 C -21.914062 -51 -20.179688 -51.265625 -18.203125 -51.265625 C -16.140625 -51.265625 -14.351562 -50.773438 -12.84375 -49.796875 C -11.332031 -48.828125 -9.976562 -47.171875 -8.78125 -44.828125 C -7.582031 -42.484375 -6.445312 -39.269531 -5.375 -35.1875 Z M -9.671875 -35.1875 "/></g></g></g><g fill="#ffffff" fill-opacity="1"><g transform="translate(272.004606, 218.755791)"><g><path d="M 41.71875 -31.53125 L 41.71875 0 L 37.078125 0 L 37.078125 -2.578125 C 35.742188 -1.847656 34.285156 -1.300781 32.703125 -0.9375 C 31.117188 -0.582031 29.523438 -0.40625 27.921875 -0.40625 C 23.804688 -0.40625 19.867188 -1.421875 16.109375 -3.453125 C 12.347656 -5.492188 8.597656 -8.898438 4.859375 -13.671875 C 3.828125 -15.003906 3.140625 -16.097656 2.796875 -16.953125 C 2.453125 -17.816406 2.28125 -18.613281 2.28125 -19.34375 C 2.28125 -20.144531 2.566406 -20.867188 3.140625 -21.515625 C 3.710938 -22.160156 4.648438 -22.484375 5.953125 -22.484375 C 6.898438 -22.484375 7.726562 -22.265625 8.4375 -21.828125 C 9.144531 -21.390625 9.785156 -20.789062 10.359375 -20.03125 C 11.160156 -20.75 11.703125 -21.671875 11.984375 -22.796875 C 12.273438 -23.921875 12.421875 -25.054688 12.421875 -26.203125 C 12.421875 -27.191406 12.351562 -28.132812 12.21875 -29.03125 C 12.082031 -29.9375 11.84375 -30.769531 11.5 -31.53125 L 0 -31.53125 L 0 -35.59375 L 47.65625 -35.59375 L 47.65625 -31.53125 Z M 30.5625 -13.28125 C 31.894531 -13.28125 33.113281 -13.554688 34.21875 -14.109375 C 35.320312 -14.660156 36.273438 -15.296875 37.078125 -16.015625 L 37.078125 -31.53125 L 16.078125 -31.53125 C 16.722656 -30.113281 17.046875 -28.335938 17.046875 -26.203125 C 17.046875 -23.078125 16.378906 -20.597656 15.046875 -18.765625 C 13.710938 -16.929688 11.863281 -15.5 9.5 -14.46875 C 12.164062 -11.269531 14.976562 -8.8125 17.9375 -7.09375 C 20.894531 -5.375 24.257812 -4.515625 28.03125 -4.515625 C 29.675781 -4.515625 31.238281 -4.707031 32.71875 -5.09375 C 34.207031 -5.476562 35.660156 -6.109375 37.078125 -6.984375 L 37.078125 -11.328125 C 36.203125 -10.796875 35.148438 -10.335938 33.921875 -9.953125 C 32.703125 -9.578125 31.332031 -9.390625 29.8125 -9.390625 C 28.019531 -9.390625 26.40625 -9.757812 24.96875 -10.5 C 23.539062 -11.238281 22.414062 -12.265625 21.59375 -13.578125 C 20.78125 -14.898438 20.375 -16.457031 20.375 -18.25 C 20.375 -21.039062 21.285156 -23.207031 23.109375 -24.75 C 24.941406 -26.289062 27.367188 -27.0625 30.390625 -27.0625 C 31.035156 -27.0625 31.875 -27.015625 32.90625 -26.921875 C 33.9375 -26.828125 34.71875 -26.6875 35.25 -26.5 L 34.90625 -22.546875 C 34.332031 -22.691406 33.691406 -22.820312 32.984375 -22.9375 C 32.273438 -23.050781 31.578125 -23.109375 30.890625 -23.109375 C 29.066406 -23.109375 27.628906 -22.6875 26.578125 -21.84375 C 25.523438 -21.007812 25 -19.753906 25 -18.078125 C 25 -16.441406 25.523438 -15.234375 26.578125 -14.453125 C 27.628906 -13.671875 28.957031 -13.28125 30.5625 -13.28125 Z M 30.5625 -13.28125 "/></g></g></g></svg>